M48
; DRILL file {KiCad 9.0.2} date 2025-05-23T18:36:56-0600
; FORMAT={-:-/ absolute / metric / decimal}
; #@! TF.CreationDate,2025-05-23T18:36:56-06:00
; #@! TF.GenerationSoftware,Kicad,Pcbnew,9.0.2
; #@! TF.FileFunction,NonPlated,1,2,NPTH
FMAT,2
METRIC
; #@! TA.AperFunction,NonPlated,NPTH,ComponentDrill
T1C1.200
; #@! TA.AperFunction,NonPlated,NPTH,ComponentDrill
T2C1.700
; #@! TA.AperFunction,NonPlated,NPTH,ComponentDrill
T3C3.050
; #@! TA.AperFunction,NonPlated,NPTH,ComponentDrill
T4C4.000
%
G90
G05
T1
X162.25Y-100.25
X167.25Y-95.25
X167.25Y-105.25
X169.75Y-95.25
X169.75Y-105.25
X190.25Y-95.0
X190.25Y-105.0
X192.75Y-95.0
X192.75Y-105.0
X197.75Y-100.0
T2
X34.5Y-111.4
X34.5Y-130.5
X34.6Y-54.16
X34.6Y-73.2
X34.6Y-92.3
X44.66Y-111.4
X44.66Y-130.5
X44.76Y-54.16
X44.76Y-73.2
X44.76Y-92.3
X53.6Y-111.4
X53.6Y-130.5
X53.65Y-54.16
X53.65Y-92.26
X53.7Y-73.2
X63.76Y-111.4
X63.76Y-130.5
X63.81Y-54.16
X63.81Y-92.26
X63.86Y-73.2
X72.65Y-125.697
X72.75Y-49.398
X72.8Y-68.438
X72.8Y-87.537
X72.8Y-106.637
X82.81Y-125.697
X82.91Y-49.398
X82.96Y-68.438
X82.96Y-87.537
X82.96Y-106.637
X91.8Y-82.775
X91.8Y-101.875
X91.82Y-44.635
X91.85Y-63.635
X91.85Y-120.935
X101.96Y-82.775
X101.96Y-101.875
X101.98Y-44.635
X102.01Y-63.635
X102.01Y-120.935
X110.75Y-49.398
X110.75Y-68.397
X110.8Y-87.537
X110.8Y-106.637
X120.35Y-125.697
X120.91Y-49.398
X120.91Y-68.397
X120.96Y-87.537
X120.96Y-106.637
X129.7Y-87.438
X129.7Y-106.657
X129.75Y-49.398
X129.8Y-68.438
X130.51Y-125.697
X139.86Y-87.438
X139.86Y-106.657
X139.91Y-49.398
X139.96Y-68.438
X220.155Y-87.425
X220.155Y-106.525
X220.195Y-49.245
X220.195Y-68.345
X229.755Y-125.625
X230.315Y-87.425
X230.315Y-106.525
X230.355Y-49.245
X230.355Y-68.345
X239.205Y-49.285
X239.205Y-87.385
X239.205Y-106.525
X239.255Y-68.325
X239.915Y-125.625
X249.365Y-49.285
X249.365Y-87.385
X249.365Y-106.525
X249.415Y-68.325
X258.255Y-44.562
X258.255Y-63.562
X258.355Y-82.763
X258.355Y-101.762
X258.355Y-120.862
X268.415Y-44.562
X268.415Y-63.562
X268.515Y-82.763
X268.515Y-101.762
X268.515Y-120.862
X277.255Y-49.325
X277.255Y-87.425
X277.255Y-106.525
X277.255Y-125.625
X277.355Y-68.325
X287.415Y-49.325
X287.415Y-87.425
X287.415Y-106.525
X287.415Y-125.625
X287.515Y-68.325
X296.305Y-130.347
X296.355Y-54.087
X296.355Y-73.087
X296.355Y-92.188
X296.355Y-111.188
X306.465Y-130.347
X306.515Y-54.087
X306.515Y-73.087
X306.515Y-92.188
X306.515Y-111.188
X315.455Y-73.087
X315.455Y-92.188
X315.455Y-111.188
X315.455Y-130.387
X315.505Y-54.148
X325.615Y-73.087
X325.615Y-92.188
X325.615Y-111.188
X325.615Y-130.387
X325.665Y-54.148
T3
X113.53Y-118.697
X137.33Y-118.697
X222.935Y-118.625
X246.735Y-118.625
T4
X39.58Y-111.4
X39.58Y-130.5
X39.68Y-54.16
X39.68Y-73.2
X39.68Y-92.3
X58.68Y-111.4
X58.68Y-130.5
X58.73Y-54.16
X58.73Y-92.26
X58.78Y-73.2
X77.73Y-125.697
X77.83Y-49.398
X77.88Y-68.438
X77.88Y-87.537
X77.88Y-106.637
X96.88Y-82.775
X96.88Y-101.875
X96.9Y-44.635
X96.93Y-63.635
X96.93Y-120.935
X113.53Y-133.938
X115.83Y-49.398
X115.83Y-68.397
X115.88Y-87.537
X115.88Y-106.637
X125.43Y-125.697
X134.78Y-87.438
X134.78Y-106.657
X134.83Y-49.398
X134.88Y-68.438
X137.33Y-133.938
X222.935Y-133.865
X225.235Y-87.425
X225.235Y-106.525
X225.275Y-49.245
X225.275Y-68.345
X234.835Y-125.625
X244.285Y-49.285
X244.285Y-87.385
X244.285Y-106.525
X244.335Y-68.325
X246.735Y-133.865
X263.335Y-44.562
X263.335Y-63.562
X263.435Y-82.763
X263.435Y-101.762
X263.435Y-120.862
X282.335Y-49.325
X282.335Y-87.425
X282.335Y-106.525
X282.335Y-125.625
X282.435Y-68.325
X301.385Y-130.347
X301.435Y-54.087
X301.435Y-73.087
X301.435Y-92.188
X301.435Y-111.188
X320.535Y-73.087
X320.535Y-92.188
X320.535Y-111.188
X320.535Y-130.387
X320.585Y-54.148
M30
