G04 #@! TF.GenerationSoftware,KiCad,Pcbnew,9.0.2*
G04 #@! TF.CreationDate,2025-05-23T18:35:34-06:00*
G04 #@! TF.ProjectId,Colette,436f6c65-7474-4652-9e6b-696361645f70,rev?*
G04 #@! TF.SameCoordinates,Original*
G04 #@! TF.FileFunction,Legend,Bot*
G04 #@! TF.FilePolarity,Positive*
%FSLAX46Y46*%
G04 Gerber Fmt 4.6, Leading zero omitted, Abs format (unit mm)*
G04 Created by KiCad (PCBNEW 9.0.2) date 2025-05-23 18:35:34*
%MOMM*%
%LPD*%
G01*
G04 APERTURE LIST*
G04 Aperture macros list*
%AMRoundRect*
0 Rectangle with rounded corners*
0 $1 Rounding radius*
0 $2 $3 $4 $5 $6 $7 $8 $9 X,Y pos of 4 corners*
0 Add a 4 corners polygon primitive as box body*
4,1,4,$2,$3,$4,$5,$6,$7,$8,$9,$2,$3,0*
0 Add four circle primitives for the rounded corners*
1,1,$1+$1,$2,$3*
1,1,$1+$1,$4,$5*
1,1,$1+$1,$6,$7*
1,1,$1+$1,$8,$9*
0 Add four rect primitives between the rounded corners*
20,1,$1+$1,$2,$3,$4,$5,0*
20,1,$1+$1,$4,$5,$6,$7,0*
20,1,$1+$1,$6,$7,$8,$9,0*
20,1,$1+$1,$8,$9,$2,$3,0*%
%AMFreePoly0*
4,1,37,0.603843,0.796157,0.639018,0.796157,0.711114,0.766294,0.766294,0.711114,0.796157,0.639018,0.796157,0.603843,0.800000,0.600000,0.800000,-0.600000,0.796157,-0.603843,0.796157,-0.639018,0.766294,-0.711114,0.711114,-0.766294,0.639018,-0.796157,0.603843,-0.796157,0.600000,-0.800000,0.000000,-0.800000,0.000000,-0.796148,-0.078414,-0.796148,-0.232228,-0.765552,-0.377117,-0.705537,
-0.507515,-0.618408,-0.618408,-0.507515,-0.705537,-0.377117,-0.765552,-0.232228,-0.796148,-0.078414,-0.796148,0.078414,-0.765552,0.232228,-0.705537,0.377117,-0.618408,0.507515,-0.507515,0.618408,-0.377117,0.705537,-0.232228,0.765552,-0.078414,0.796148,0.000000,0.796148,0.000000,0.800000,0.600000,0.800000,0.603843,0.796157,0.603843,0.796157,$1*%
%AMFreePoly1*
4,1,37,0.000000,0.796148,0.078414,0.796148,0.232228,0.765552,0.377117,0.705537,0.507515,0.618408,0.618408,0.507515,0.705537,0.377117,0.765552,0.232228,0.796148,0.078414,0.796148,-0.078414,0.765552,-0.232228,0.705537,-0.377117,0.618408,-0.507515,0.507515,-0.618408,0.377117,-0.705537,0.232228,-0.765552,0.078414,-0.796148,0.000000,-0.796148,0.000000,-0.800000,-0.600000,-0.800000,
-0.603843,-0.796157,-0.639018,-0.796157,-0.711114,-0.766294,-0.766294,-0.711114,-0.796157,-0.639018,-0.796157,-0.603843,-0.800000,-0.600000,-0.800000,0.600000,-0.796157,0.603843,-0.796157,0.639018,-0.766294,0.711114,-0.711114,0.766294,-0.639018,0.796157,-0.603843,0.796157,-0.600000,0.800000,0.000000,0.800000,0.000000,0.796148,0.000000,0.796148,$1*%
G04 Aperture macros list end*
%ADD10C,1.700000*%
%ADD11C,4.000000*%
%ADD12C,2.200000*%
%ADD13R,1.600000X1.600000*%
%ADD14O,1.600000X1.600000*%
%ADD15C,3.050000*%
%ADD16C,1.200000*%
%ADD17O,2.200000X1.200000*%
%ADD18O,1.200000X2.200000*%
%ADD19RoundRect,0.200000X-0.600000X-0.600000X0.600000X-0.600000X0.600000X0.600000X-0.600000X0.600000X0*%
%ADD20C,1.600000*%
%ADD21FreePoly0,0.000000*%
%ADD22FreePoly1,0.000000*%
G04 APERTURE END LIST*
%LPC*%
D10*
X315455000Y-92187500D03*
D11*
X320535000Y-92187500D03*
D10*
X325615000Y-92187500D03*
D12*
X323075000Y-87107500D03*
X316725000Y-89647500D03*
D13*
X87520000Y-72127500D03*
D14*
X87520000Y-64507500D03*
D13*
X291975000Y-130265000D03*
D14*
X291975000Y-122645000D03*
D13*
X87420000Y-51927500D03*
D14*
X87420000Y-44307500D03*
D13*
X106720000Y-89227500D03*
D14*
X106720000Y-81607500D03*
D13*
X49220000Y-56527500D03*
D14*
X49220000Y-48907500D03*
D10*
X53600000Y-130500000D03*
D11*
X58680000Y-130500000D03*
D10*
X63760000Y-130500000D03*
D12*
X61220000Y-125420000D03*
X54870000Y-127960000D03*
D10*
X129700000Y-106657500D03*
D11*
X134780000Y-106657500D03*
D10*
X139860000Y-106657500D03*
D12*
X137320000Y-101577500D03*
X130970000Y-104117500D03*
D13*
X106620000Y-72727500D03*
D14*
X106620000Y-65107500D03*
D13*
X234775000Y-89965000D03*
D14*
X234775000Y-82345000D03*
D13*
X272775000Y-90155000D03*
D14*
X272775000Y-82535000D03*
D10*
X296305000Y-130347500D03*
D11*
X301385000Y-130347500D03*
D10*
X306465000Y-130347500D03*
D12*
X303925000Y-125267500D03*
X297575000Y-127807500D03*
D10*
X258355000Y-101762500D03*
D11*
X263435000Y-101762500D03*
D10*
X268515000Y-101762500D03*
D12*
X265975000Y-96682500D03*
X259625000Y-99222500D03*
D15*
X113530000Y-118697500D03*
D11*
X113530000Y-133937500D03*
D10*
X120350000Y-125697500D03*
D11*
X125430000Y-125697500D03*
D10*
X130510000Y-125697500D03*
D15*
X137330000Y-118697500D03*
D11*
X137330000Y-133937500D03*
D12*
X127970000Y-120617500D03*
X121620000Y-123157500D03*
D13*
X106420000Y-124927500D03*
D14*
X106420000Y-117307500D03*
D10*
X91800000Y-101875000D03*
D11*
X96880000Y-101875000D03*
D10*
X101960000Y-101875000D03*
D12*
X99420000Y-96795000D03*
X93070000Y-99335000D03*
D13*
X125620000Y-112727500D03*
D14*
X125620000Y-105107500D03*
D16*
X192750000Y-95000000D03*
X190250000Y-95000000D03*
X197750000Y-100000000D03*
X192750000Y-105000000D03*
X190250000Y-105000000D03*
D17*
X197750000Y-95000000D03*
D18*
X192750000Y-100000000D03*
D17*
X197750000Y-105000000D03*
D10*
X129750000Y-49397500D03*
D11*
X134830000Y-49397500D03*
D10*
X139910000Y-49397500D03*
D12*
X137370000Y-44317500D03*
X131020000Y-46857500D03*
D13*
X273075000Y-106255000D03*
D14*
X273075000Y-98635000D03*
D10*
X220195000Y-68345000D03*
D11*
X225275000Y-68345000D03*
D10*
X230355000Y-68345000D03*
D12*
X227815000Y-63265000D03*
X221465000Y-65805000D03*
D13*
X273075000Y-123655000D03*
D14*
X273075000Y-116035000D03*
D10*
X239255000Y-68325000D03*
D11*
X244335000Y-68325000D03*
D10*
X249415000Y-68325000D03*
D12*
X246875000Y-63245000D03*
X240525000Y-65785000D03*
D10*
X296355000Y-92187500D03*
D11*
X301435000Y-92187500D03*
D10*
X306515000Y-92187500D03*
D12*
X303975000Y-87107500D03*
X297625000Y-89647500D03*
D10*
X110750000Y-68397500D03*
D11*
X115830000Y-68397500D03*
D10*
X120910000Y-68397500D03*
D12*
X118370000Y-63317500D03*
X112020000Y-65857500D03*
D10*
X110750000Y-49397500D03*
D11*
X115830000Y-49397500D03*
D10*
X120910000Y-49397500D03*
D12*
X118370000Y-44317500D03*
X112020000Y-46857500D03*
D10*
X296355000Y-54087500D03*
D11*
X301435000Y-54087500D03*
D10*
X306515000Y-54087500D03*
D12*
X303975000Y-49007500D03*
X297625000Y-51547500D03*
D10*
X72750000Y-49397500D03*
D11*
X77830000Y-49397500D03*
D10*
X82910000Y-49397500D03*
D12*
X80370000Y-44317500D03*
X74020000Y-46857500D03*
D13*
X311075000Y-113555000D03*
D14*
X311075000Y-105935000D03*
D10*
X277355000Y-68325000D03*
D11*
X282435000Y-68325000D03*
D10*
X287515000Y-68325000D03*
D12*
X284975000Y-63245000D03*
X278625000Y-65785000D03*
D15*
X222935000Y-118625000D03*
D11*
X222935000Y-133865000D03*
D10*
X229755000Y-125625000D03*
D11*
X234835000Y-125625000D03*
D10*
X239915000Y-125625000D03*
D15*
X246735000Y-118625000D03*
D11*
X246735000Y-133865000D03*
D12*
X237375000Y-120545000D03*
X231025000Y-123085000D03*
D10*
X239205000Y-87385000D03*
D11*
X244285000Y-87385000D03*
D10*
X249365000Y-87385000D03*
D12*
X246825000Y-82305000D03*
X240475000Y-84845000D03*
D10*
X277255000Y-125625000D03*
D11*
X282335000Y-125625000D03*
D10*
X287415000Y-125625000D03*
D12*
X284875000Y-120545000D03*
X278525000Y-123085000D03*
D13*
X133010000Y-57607500D03*
D14*
X140630000Y-57607500D03*
D10*
X315455000Y-73087500D03*
D11*
X320535000Y-73087500D03*
D10*
X325615000Y-73087500D03*
D12*
X323075000Y-68007500D03*
X316725000Y-70547500D03*
D10*
X72800000Y-106637500D03*
D11*
X77880000Y-106637500D03*
D10*
X82960000Y-106637500D03*
D12*
X80420000Y-101557500D03*
X74070000Y-104097500D03*
D13*
X253775000Y-109055000D03*
D14*
X253775000Y-101435000D03*
D13*
X234775000Y-70855000D03*
D14*
X234775000Y-63235000D03*
D10*
X258355000Y-120862500D03*
D11*
X263435000Y-120862500D03*
D10*
X268515000Y-120862500D03*
D12*
X265975000Y-115782500D03*
X259625000Y-118322500D03*
D10*
X72800000Y-87537500D03*
D11*
X77880000Y-87537500D03*
D10*
X82960000Y-87537500D03*
D12*
X80420000Y-82457500D03*
X74070000Y-84997500D03*
D13*
X310975000Y-94555000D03*
D14*
X310975000Y-86935000D03*
D10*
X129700000Y-87437500D03*
D11*
X134780000Y-87437500D03*
D10*
X139860000Y-87437500D03*
D12*
X137320000Y-82357500D03*
X130970000Y-84897500D03*
D13*
X125420000Y-90117500D03*
D14*
X125420000Y-82497500D03*
D10*
X72650000Y-125697500D03*
D11*
X77730000Y-125697500D03*
D10*
X82810000Y-125697500D03*
D12*
X80270000Y-120617500D03*
X73920000Y-123157500D03*
D13*
X253975000Y-70855000D03*
D14*
X253975000Y-63235000D03*
D10*
X220155000Y-106525000D03*
D11*
X225235000Y-106525000D03*
D10*
X230315000Y-106525000D03*
D12*
X227775000Y-101445000D03*
X221425000Y-103985000D03*
D10*
X315505000Y-54147500D03*
D11*
X320585000Y-54147500D03*
D10*
X325665000Y-54147500D03*
D12*
X323125000Y-49067500D03*
X316775000Y-51607500D03*
D13*
X125220000Y-70907500D03*
D14*
X125220000Y-63287500D03*
D13*
X272875000Y-52965000D03*
D14*
X272875000Y-45345000D03*
D13*
X291875000Y-90065000D03*
D14*
X291875000Y-82445000D03*
D13*
X68620000Y-115427500D03*
D14*
X68620000Y-107807500D03*
D10*
X53650000Y-92260000D03*
D11*
X58730000Y-92260000D03*
D10*
X63810000Y-92260000D03*
D12*
X61270000Y-87180000D03*
X54920000Y-89720000D03*
D13*
X313955000Y-63245000D03*
D14*
X321575000Y-63245000D03*
D13*
X292175000Y-71055000D03*
D14*
X292175000Y-63435000D03*
D13*
X313265000Y-120545000D03*
D14*
X320885000Y-120545000D03*
D10*
X277255000Y-87425000D03*
D11*
X282335000Y-87425000D03*
D10*
X287415000Y-87425000D03*
D12*
X284875000Y-82345000D03*
X278525000Y-84885000D03*
D13*
X49120000Y-115317500D03*
D14*
X49120000Y-107697500D03*
D13*
X49220000Y-75927500D03*
D14*
X49220000Y-68307500D03*
D10*
X53650000Y-54160000D03*
D11*
X58730000Y-54160000D03*
D10*
X63810000Y-54160000D03*
D12*
X61270000Y-49080000D03*
X54920000Y-51620000D03*
D10*
X91850000Y-120935000D03*
D11*
X96930000Y-120935000D03*
D10*
X102010000Y-120935000D03*
D12*
X99470000Y-115855000D03*
X93120000Y-118395000D03*
D13*
X125320000Y-54827500D03*
D14*
X125320000Y-47207500D03*
D19*
X148720000Y-41447500D03*
D20*
X148720000Y-43987500D03*
D21*
X148720000Y-46527500D03*
D20*
X148720000Y-49067500D03*
X148720000Y-51607500D03*
X148720000Y-54147500D03*
X148720000Y-56687500D03*
D21*
X148720000Y-59227500D03*
D20*
X148720000Y-61767500D03*
X148720000Y-64307500D03*
X148720000Y-66847500D03*
X148720000Y-69387500D03*
D21*
X148720000Y-71927500D03*
D20*
X148720000Y-74467500D03*
X148720000Y-77007500D03*
X148720000Y-79547500D03*
X148720000Y-82087500D03*
D21*
X148720000Y-84627500D03*
D20*
X148720000Y-87167500D03*
X148720000Y-89707500D03*
X166500000Y-89707500D03*
X166500000Y-87167500D03*
D22*
X166500000Y-84627500D03*
D20*
X166500000Y-82087500D03*
X166500000Y-79547500D03*
X166500000Y-77007500D03*
X166500000Y-74467500D03*
D22*
X166500000Y-71927500D03*
D20*
X166500000Y-69387500D03*
X166500000Y-66847500D03*
X166500000Y-64307500D03*
X166500000Y-61767500D03*
D22*
X166500000Y-59227500D03*
D20*
X166500000Y-56687500D03*
X166500000Y-54147500D03*
X166500000Y-51607500D03*
X166500000Y-49067500D03*
D22*
X166500000Y-46527500D03*
D20*
X166500000Y-43987500D03*
X166500000Y-41447500D03*
D10*
X34600000Y-54160000D03*
D11*
X39680000Y-54160000D03*
D10*
X44760000Y-54160000D03*
D12*
X42220000Y-49080000D03*
X35870000Y-51620000D03*
D13*
X87420000Y-89617500D03*
D14*
X87420000Y-81997500D03*
D10*
X296355000Y-73087500D03*
D11*
X301435000Y-73087500D03*
D10*
X306515000Y-73087500D03*
D12*
X303975000Y-68007500D03*
X297625000Y-70547500D03*
D19*
X193750000Y-41250000D03*
D20*
X193750000Y-43790000D03*
D21*
X193750000Y-46330000D03*
D20*
X193750000Y-48870000D03*
X193750000Y-51410000D03*
X193750000Y-53950000D03*
X193750000Y-56490000D03*
D21*
X193750000Y-59030000D03*
D20*
X193750000Y-61570000D03*
X193750000Y-64110000D03*
X193750000Y-66650000D03*
X193750000Y-69190000D03*
D21*
X193750000Y-71730000D03*
D20*
X193750000Y-74270000D03*
X193750000Y-76810000D03*
X193750000Y-79350000D03*
X193750000Y-81890000D03*
D21*
X193750000Y-84430000D03*
D20*
X193750000Y-86970000D03*
X193750000Y-89510000D03*
X211530000Y-89510000D03*
X211530000Y-86970000D03*
D22*
X211530000Y-84430000D03*
D20*
X211530000Y-81890000D03*
X211530000Y-79350000D03*
X211530000Y-76810000D03*
X211530000Y-74270000D03*
D22*
X211530000Y-71730000D03*
D20*
X211530000Y-69190000D03*
X211530000Y-66650000D03*
X211530000Y-64110000D03*
X211530000Y-61570000D03*
D22*
X211530000Y-59030000D03*
D20*
X211530000Y-56490000D03*
X211530000Y-53950000D03*
X211530000Y-51410000D03*
X211530000Y-48870000D03*
D22*
X211530000Y-46330000D03*
D20*
X211530000Y-43790000D03*
X211530000Y-41250000D03*
D13*
X269185000Y-111545000D03*
D14*
X261565000Y-111545000D03*
D10*
X34600000Y-92300000D03*
D11*
X39680000Y-92300000D03*
D10*
X44760000Y-92300000D03*
D12*
X42220000Y-87220000D03*
X35870000Y-89760000D03*
D10*
X315455000Y-130387500D03*
D11*
X320535000Y-130387500D03*
D10*
X325615000Y-130387500D03*
D12*
X323075000Y-125307500D03*
X316725000Y-127847500D03*
D13*
X311075000Y-132755000D03*
D14*
X311075000Y-125135000D03*
D10*
X220155000Y-87425000D03*
D11*
X225235000Y-87425000D03*
D10*
X230315000Y-87425000D03*
D12*
X227775000Y-82345000D03*
X221425000Y-84885000D03*
D13*
X132610000Y-96007500D03*
D14*
X140230000Y-96007500D03*
D13*
X313255000Y-82345000D03*
D14*
X320875000Y-82345000D03*
D10*
X91820000Y-44635000D03*
D11*
X96900000Y-44635000D03*
D10*
X101980000Y-44635000D03*
D12*
X99440000Y-39555000D03*
X93090000Y-42095000D03*
D13*
X300555000Y-120445000D03*
D14*
X308175000Y-120445000D03*
D10*
X110800000Y-87537500D03*
D11*
X115880000Y-87537500D03*
D10*
X120960000Y-87537500D03*
D12*
X118420000Y-82457500D03*
X112070000Y-84997500D03*
D13*
X132700000Y-76807500D03*
D14*
X140320000Y-76807500D03*
D10*
X277255000Y-106525000D03*
D11*
X282335000Y-106525000D03*
D10*
X287415000Y-106525000D03*
D12*
X284875000Y-101445000D03*
X278525000Y-103985000D03*
D13*
X87120000Y-110527500D03*
D14*
X87120000Y-102907500D03*
D13*
X311075000Y-75865000D03*
D14*
X311075000Y-68245000D03*
D13*
X253975000Y-90055000D03*
D14*
X253975000Y-82435000D03*
D13*
X313855000Y-101345000D03*
D14*
X321475000Y-101345000D03*
D10*
X34500000Y-130500000D03*
D11*
X39580000Y-130500000D03*
D10*
X44660000Y-130500000D03*
D12*
X42120000Y-125420000D03*
X35770000Y-127960000D03*
D13*
X291975000Y-56555000D03*
D14*
X291975000Y-48935000D03*
D13*
X272975000Y-71065000D03*
D14*
X272975000Y-63445000D03*
D13*
X234775000Y-108965000D03*
D14*
X234775000Y-101345000D03*
D13*
X68320000Y-56527500D03*
D14*
X68320000Y-48907500D03*
D13*
X117210000Y-115807500D03*
D14*
X124830000Y-115807500D03*
D10*
X258355000Y-82762500D03*
D11*
X263435000Y-82762500D03*
D10*
X268515000Y-82762500D03*
D12*
X265975000Y-77682500D03*
X259625000Y-80222500D03*
D10*
X296355000Y-111187500D03*
D11*
X301435000Y-111187500D03*
D10*
X306515000Y-111187500D03*
D12*
X303975000Y-106107500D03*
X297625000Y-108647500D03*
D13*
X130910000Y-115307500D03*
D14*
X138530000Y-115307500D03*
D10*
X53700000Y-73200000D03*
D11*
X58780000Y-73200000D03*
D10*
X63860000Y-73200000D03*
D12*
X61320000Y-68120000D03*
X54970000Y-70660000D03*
D13*
X106420000Y-110517500D03*
D14*
X106420000Y-102897500D03*
D13*
X253775000Y-51865000D03*
D14*
X253775000Y-44245000D03*
D10*
X91800000Y-82775000D03*
D11*
X96880000Y-82775000D03*
D10*
X101960000Y-82775000D03*
D12*
X99420000Y-77695000D03*
X93070000Y-80235000D03*
D10*
X239205000Y-106525000D03*
D11*
X244285000Y-106525000D03*
D10*
X249365000Y-106525000D03*
D12*
X246825000Y-101445000D03*
X240475000Y-103985000D03*
D13*
X68020000Y-132017500D03*
D14*
X68020000Y-124397500D03*
D13*
X106420000Y-51717500D03*
D14*
X106420000Y-44097500D03*
D13*
X68320000Y-93417500D03*
D14*
X68320000Y-85797500D03*
D10*
X72800000Y-68437500D03*
D11*
X77880000Y-68437500D03*
D10*
X82960000Y-68437500D03*
D12*
X80420000Y-63357500D03*
X74070000Y-65897500D03*
D10*
X258255000Y-63562500D03*
D11*
X263335000Y-63562500D03*
D10*
X268415000Y-63562500D03*
D12*
X265875000Y-58482500D03*
X259525000Y-61022500D03*
D13*
X68520000Y-76227500D03*
D14*
X68520000Y-68607500D03*
D13*
X87420000Y-124917500D03*
D14*
X87420000Y-117297500D03*
D10*
X220195000Y-49245000D03*
D11*
X225275000Y-49245000D03*
D10*
X230355000Y-49245000D03*
D12*
X227815000Y-44165000D03*
X221465000Y-46705000D03*
D16*
X167250000Y-105250000D03*
X169750000Y-105250000D03*
X162250000Y-100250000D03*
X167250000Y-95250000D03*
X169750000Y-95250000D03*
D17*
X162250000Y-105250000D03*
D18*
X167250000Y-100250000D03*
D17*
X162250000Y-95250000D03*
D10*
X91850000Y-63635000D03*
D11*
X96930000Y-63635000D03*
D10*
X102010000Y-63635000D03*
D12*
X99470000Y-58555000D03*
X93120000Y-61095000D03*
D10*
X315455000Y-111187500D03*
D11*
X320535000Y-111187500D03*
D10*
X325615000Y-111187500D03*
D12*
X323075000Y-106107500D03*
X316725000Y-108647500D03*
D13*
X234775000Y-51765000D03*
D14*
X234775000Y-44145000D03*
D10*
X277255000Y-49325000D03*
D11*
X282335000Y-49325000D03*
D10*
X287415000Y-49325000D03*
D12*
X284875000Y-44245000D03*
X278525000Y-46785000D03*
D10*
X34600000Y-73200000D03*
D11*
X39680000Y-73200000D03*
D10*
X44760000Y-73200000D03*
D12*
X42220000Y-68120000D03*
X35870000Y-70660000D03*
D13*
X49220000Y-134217500D03*
D14*
X49220000Y-126597500D03*
D13*
X49220000Y-95817500D03*
D14*
X49220000Y-88197500D03*
D10*
X110800000Y-106637500D03*
D11*
X115880000Y-106637500D03*
D10*
X120960000Y-106637500D03*
D12*
X118420000Y-101557500D03*
X112070000Y-104097500D03*
D10*
X239205000Y-49285000D03*
D11*
X244285000Y-49285000D03*
D10*
X249365000Y-49285000D03*
D12*
X246825000Y-44205000D03*
X240475000Y-46745000D03*
D10*
X129800000Y-68437500D03*
D11*
X134880000Y-68437500D03*
D10*
X139960000Y-68437500D03*
D12*
X137420000Y-63357500D03*
X131070000Y-65897500D03*
D10*
X258255000Y-44562500D03*
D11*
X263335000Y-44562500D03*
D10*
X268415000Y-44562500D03*
D12*
X265875000Y-39482500D03*
X259525000Y-42022500D03*
D13*
X310975000Y-61565000D03*
D14*
X310975000Y-53945000D03*
D10*
X34500000Y-111400000D03*
D11*
X39580000Y-111400000D03*
D10*
X44660000Y-111400000D03*
D12*
X42120000Y-106320000D03*
X35770000Y-108860000D03*
D10*
X53600000Y-111400000D03*
D11*
X58680000Y-111400000D03*
D10*
X63760000Y-111400000D03*
D12*
X61220000Y-106320000D03*
X54870000Y-108860000D03*
D13*
X292075000Y-109055000D03*
D14*
X292075000Y-101435000D03*
%LPD*%
M02*
