M48
; DRILL file {KiCad 9.0.2} date 2025-05-23T18:36:56-0600
; FORMAT={-:-/ absolute / metric / decimal}
; #@! TF.CreationDate,2025-05-23T18:36:56-06:00
; #@! TF.GenerationSoftware,Kicad,Pcbnew,9.0.2
; #@! TF.FileFunction,Plated,1,2,PTH
FMAT,2
METRIC
; #@! TA.AperFunction,Plated,PTH,ComponentDrill
T1C0.400
; #@! TA.AperFunction,Plated,PTH,ComponentDrill
T2C0.800
; #@! TA.AperFunction,Plated,PTH,ComponentDrill
T3C1.000
; #@! TA.AperFunction,Plated,PTH,ComponentDrill
T4C1.500
%
G90
G05
T2
X49.12Y-107.697
X49.12Y-115.317
X49.22Y-48.907
X49.22Y-56.527
X49.22Y-68.307
X49.22Y-75.927
X49.22Y-88.197
X49.22Y-95.817
X49.22Y-126.597
X49.22Y-134.218
X68.02Y-124.397
X68.02Y-132.017
X68.32Y-48.907
X68.32Y-56.527
X68.32Y-85.797
X68.32Y-93.417
X68.52Y-68.608
X68.52Y-76.227
X68.62Y-107.807
X68.62Y-115.427
X87.12Y-102.907
X87.12Y-110.527
X87.42Y-44.307
X87.42Y-51.927
X87.42Y-81.998
X87.42Y-89.617
X87.42Y-117.297
X87.42Y-124.917
X87.52Y-64.507
X87.52Y-72.127
X106.42Y-44.097
X106.42Y-51.718
X106.42Y-102.897
X106.42Y-110.517
X106.42Y-117.307
X106.42Y-124.927
X106.62Y-65.108
X106.62Y-72.727
X106.72Y-81.608
X106.72Y-89.227
X117.21Y-115.807
X124.83Y-115.807
X125.22Y-63.287
X125.22Y-70.907
X125.32Y-47.207
X125.32Y-54.828
X125.42Y-82.498
X125.42Y-90.117
X125.62Y-105.108
X125.62Y-112.727
X130.91Y-115.307
X132.61Y-96.007
X132.7Y-76.807
X133.01Y-57.607
X138.53Y-115.307
X140.23Y-96.007
X140.32Y-76.807
X140.63Y-57.607
X234.775Y-44.145
X234.775Y-51.765
X234.775Y-63.235
X234.775Y-70.855
X234.775Y-82.345
X234.775Y-89.965
X234.775Y-101.345
X234.775Y-108.965
X253.775Y-44.245
X253.775Y-51.865
X253.775Y-101.435
X253.775Y-109.055
X253.975Y-63.235
X253.975Y-70.855
X253.975Y-82.435
X253.975Y-90.055
X261.565Y-111.545
X269.185Y-111.545
X272.775Y-82.535
X272.775Y-90.155
X272.875Y-45.345
X272.875Y-52.965
X272.975Y-63.445
X272.975Y-71.065
X273.075Y-98.635
X273.075Y-106.255
X273.075Y-116.035
X273.075Y-123.655
X291.875Y-82.445
X291.875Y-90.065
X291.975Y-48.935
X291.975Y-56.555
X291.975Y-122.645
X291.975Y-130.265
X292.075Y-101.435
X292.075Y-109.055
X292.175Y-63.435
X292.175Y-71.055
X300.555Y-120.445
X308.175Y-120.445
X310.975Y-53.945
X310.975Y-61.565
X310.975Y-86.935
X310.975Y-94.555
X311.075Y-68.245
X311.075Y-75.865
X311.075Y-105.935
X311.075Y-113.555
X311.075Y-125.135
X311.075Y-132.755
X313.255Y-82.345
X313.265Y-120.545
X313.855Y-101.345
X313.955Y-63.245
X320.875Y-82.345
X320.885Y-120.545
X321.475Y-101.345
X321.575Y-63.245
T3
X148.72Y-41.447
X148.72Y-43.987
X148.72Y-46.527
X148.72Y-49.067
X148.72Y-51.607
X148.72Y-54.148
X148.72Y-56.688
X148.72Y-59.227
X148.72Y-61.767
X148.72Y-64.307
X148.72Y-66.847
X148.72Y-69.388
X148.72Y-71.927
X148.72Y-74.468
X148.72Y-77.007
X148.72Y-79.547
X148.72Y-82.087
X148.72Y-84.627
X148.72Y-87.167
X148.72Y-89.707
X166.5Y-41.447
X166.5Y-43.987
X166.5Y-46.527
X166.5Y-49.067
X166.5Y-51.607
X166.5Y-54.148
X166.5Y-56.688
X166.5Y-59.227
X166.5Y-61.767
X166.5Y-64.307
X166.5Y-66.847
X166.5Y-69.388
X166.5Y-71.927
X166.5Y-74.468
X166.5Y-77.007
X166.5Y-79.547
X166.5Y-82.087
X166.5Y-84.627
X166.5Y-87.167
X166.5Y-89.707
X193.75Y-41.25
X193.75Y-43.79
X193.75Y-46.33
X193.75Y-48.87
X193.75Y-51.41
X193.75Y-53.95
X193.75Y-56.49
X193.75Y-59.03
X193.75Y-61.57
X193.75Y-64.11
X193.75Y-66.65
X193.75Y-69.19
X193.75Y-71.73
X193.75Y-74.27
X193.75Y-76.81
X193.75Y-79.35
X193.75Y-81.89
X193.75Y-84.43
X193.75Y-86.97
X193.75Y-89.51
X211.53Y-41.25
X211.53Y-43.79
X211.53Y-46.33
X211.53Y-48.87
X211.53Y-51.41
X211.53Y-53.95
X211.53Y-56.49
X211.53Y-59.03
X211.53Y-61.57
X211.53Y-64.11
X211.53Y-66.65
X211.53Y-69.19
X211.53Y-71.73
X211.53Y-74.27
X211.53Y-76.81
X211.53Y-79.35
X211.53Y-81.89
X211.53Y-84.43
X211.53Y-86.97
X211.53Y-89.51
T4
X35.77Y-108.86
X35.77Y-127.96
X35.87Y-51.62
X35.87Y-70.66
X35.87Y-89.76
X42.12Y-106.32
X42.12Y-125.42
X42.22Y-49.08
X42.22Y-68.12
X42.22Y-87.22
X54.87Y-108.86
X54.87Y-127.96
X54.92Y-51.62
X54.92Y-89.72
X54.97Y-70.66
X61.22Y-106.32
X61.22Y-125.42
X61.27Y-49.08
X61.27Y-87.18
X61.32Y-68.12
X73.92Y-123.157
X74.02Y-46.857
X74.07Y-65.897
X74.07Y-84.998
X74.07Y-104.097
X80.27Y-120.617
X80.37Y-44.317
X80.42Y-63.357
X80.42Y-82.457
X80.42Y-101.557
X93.07Y-80.235
X93.07Y-99.335
X93.09Y-42.095
X93.12Y-61.095
X93.12Y-118.395
X99.42Y-77.695
X99.42Y-96.795
X99.44Y-39.555
X99.47Y-58.555
X99.47Y-115.855
X112.02Y-46.857
X112.02Y-65.858
X112.07Y-84.998
X112.07Y-104.097
X118.37Y-44.317
X118.37Y-63.317
X118.42Y-82.457
X118.42Y-101.557
X121.62Y-123.157
X127.97Y-120.617
X130.97Y-84.897
X130.97Y-104.117
X131.02Y-46.857
X131.07Y-65.897
X137.32Y-82.358
X137.32Y-101.578
X137.37Y-44.317
X137.42Y-63.357
X221.425Y-84.885
X221.425Y-103.985
X221.465Y-46.705
X221.465Y-65.805
X227.775Y-82.345
X227.775Y-101.445
X227.815Y-44.165
X227.815Y-63.265
X231.025Y-123.085
X237.375Y-120.545
X240.475Y-46.745
X240.475Y-84.845
X240.475Y-103.985
X240.525Y-65.785
X246.825Y-44.205
X246.825Y-82.305
X246.825Y-101.445
X246.875Y-63.245
X259.525Y-42.023
X259.525Y-61.022
X259.625Y-80.222
X259.625Y-99.222
X259.625Y-118.322
X265.875Y-39.483
X265.875Y-58.482
X265.975Y-77.682
X265.975Y-96.682
X265.975Y-115.782
X278.525Y-46.785
X278.525Y-84.885
X278.525Y-103.985
X278.525Y-123.085
X278.625Y-65.785
X284.875Y-44.245
X284.875Y-82.345
X284.875Y-101.445
X284.875Y-120.545
X284.975Y-63.245
X297.575Y-127.807
X297.625Y-51.547
X297.625Y-70.547
X297.625Y-89.647
X297.625Y-108.647
X303.925Y-125.267
X303.975Y-49.008
X303.975Y-68.007
X303.975Y-87.108
X303.975Y-106.108
X316.725Y-70.547
X316.725Y-89.647
X316.725Y-108.647
X316.725Y-127.847
X316.775Y-51.607
X323.075Y-68.007
X323.075Y-87.108
X323.075Y-106.108
X323.075Y-125.307
X323.125Y-49.067
T1
X162.75Y-95.25G85X161.75Y-95.25
G05
X161.75Y-105.25G85X162.75Y-105.25
G05
X167.25Y-100.75G85X167.25Y-99.75
G05
X192.75Y-99.5G85X192.75Y-100.5
G05
X198.25Y-95.0G85X197.25Y-95.0
G05
X197.25Y-105.0G85X198.25Y-105.0
G05
M30
