G04 #@! TF.GenerationSoftware,KiCad,Pcbnew,9.0.2*
G04 #@! TF.CreationDate,2025-05-23T18:35:34-06:00*
G04 #@! TF.ProjectId,Colette,436f6c65-7474-4652-9e6b-696361645f70,rev?*
G04 #@! TF.SameCoordinates,Original*
G04 #@! TF.FileFunction,Profile,NP*
%FSLAX46Y46*%
G04 Gerber Fmt 4.6, Leading zero omitted, Abs format (unit mm)*
G04 Created by KiCad (PCBNEW 9.0.2) date 2025-05-23 18:35:34*
%MOMM*%
%LPD*%
G01*
G04 APERTURE LIST*
G04 #@! TA.AperFunction,Profile*
%ADD10C,0.200000*%
G04 #@! TD*
G04 APERTURE END LIST*
D10*
X103200000Y-138237500D02*
X103200000Y-133475000D01*
X103200000Y-133475000D02*
X90150000Y-133475000D01*
X84150000Y-32225000D02*
X109200000Y-32225000D01*
X90150000Y-133475000D02*
X90150000Y-138237500D01*
X27000000Y-41750000D02*
X27000000Y-143000000D01*
X147300000Y-138237500D02*
X103200000Y-138237500D01*
X256915000Y-138125000D02*
X256915000Y-133362500D01*
X295015000Y-36875000D02*
X275965000Y-36875000D01*
X171300000Y-36987500D02*
X171300000Y-107987500D01*
X295015000Y-41637500D02*
X295015000Y-36875000D01*
X269965000Y-138125000D02*
X289015000Y-138125000D01*
X256915000Y-133362500D02*
X269965000Y-133362500D01*
X212815000Y-107875000D02*
X212815000Y-138125000D01*
X171300000Y-107987500D02*
X147300000Y-107987500D01*
X90150000Y-138237500D02*
X71100000Y-138237500D01*
X333115000Y-41637500D02*
X295015000Y-41637500D01*
X65100000Y-41750000D02*
X65100000Y-36987500D01*
X109200000Y-32225000D02*
X109200000Y-36987500D01*
X250915000Y-32112500D02*
X250915000Y-36875000D01*
X289015000Y-142887500D02*
X333115000Y-142887500D01*
X289015000Y-138125000D02*
X289015000Y-142887500D01*
X65100000Y-36987500D02*
X84150000Y-36987500D01*
X71100000Y-143000000D02*
X27000000Y-143000000D01*
X109200000Y-36987500D02*
X171300000Y-36987500D01*
X71100000Y-138237500D02*
X71100000Y-143000000D01*
X27000000Y-41750000D02*
X65100000Y-41750000D01*
X188815000Y-107875000D02*
X212815000Y-107875000D01*
X275965000Y-32112500D02*
X250915000Y-32112500D01*
X147300000Y-107987500D02*
X147300000Y-138237500D01*
X275965000Y-36875000D02*
X275965000Y-32112500D01*
X188815000Y-36875000D02*
X188815000Y-107875000D01*
X212815000Y-138125000D02*
X256915000Y-138125000D01*
X269965000Y-133362500D02*
X269965000Y-138125000D01*
X250915000Y-36875000D02*
X188815000Y-36875000D01*
X333115000Y-41637500D02*
X333115000Y-142887500D01*
X84150000Y-36987500D02*
X84150000Y-32225000D01*
M02*
