%TF.GenerationSoftware,KiCad,Pcbnew,9.0.2*%
%TF.CreationDate,2025-05-23T18:36:56-06:00*%
%TF.ProjectId,Colette,436f6c65-7474-4652-9e6b-696361645f70,rev?*%
%TF.SameCoordinates,Original*%
%TF.FileFunction,Drillmap*%
%TF.FilePolarity,Positive*%
%FSLAX45Y45*%
G04 Gerber Fmt 4.5, Leading zero omitted, Abs format (unit mm)*
G04 Created by KiCad (PCBNEW 9.0.2) date 2025-05-23 18:36:56*
%MOMM*%
%LPD*%
G01*
G04 APERTURE LIST*
%ADD10C,0.200000*%
%ADD11C,0.120000*%
%ADD12C,0.170000*%
%ADD13C,0.305000*%
%ADD14C,0.400000*%
G04 APERTURE END LIST*
D10*
X10320000Y-13823750D02*
X10320000Y-13347500D01*
X10320000Y-13347500D02*
X9015000Y-13347500D01*
X8415000Y-3222500D02*
X10920000Y-3222500D01*
X9015000Y-13347500D02*
X9015000Y-13823750D01*
X2700000Y-4175000D02*
X2700000Y-14300000D01*
X14730000Y-13823750D02*
X10320000Y-13823750D01*
X25691500Y-13812500D02*
X25691500Y-13336250D01*
X29501500Y-3687500D02*
X27596500Y-3687500D01*
X17130000Y-3698750D02*
X17130000Y-10798750D01*
X29501500Y-4163750D02*
X29501500Y-3687500D01*
X26996500Y-13812500D02*
X28901500Y-13812500D01*
X25691500Y-13336250D02*
X26996500Y-13336250D01*
X21281500Y-10787500D02*
X21281500Y-13812500D01*
X17130000Y-10798750D02*
X14730000Y-10798750D01*
X9015000Y-13823750D02*
X7110000Y-13823750D01*
X33311500Y-4163750D02*
X29501500Y-4163750D01*
X6510000Y-4175000D02*
X6510000Y-3698750D01*
X10920000Y-3222500D02*
X10920000Y-3698750D01*
X25091500Y-3211250D02*
X25091500Y-3687500D01*
X28901500Y-14288750D02*
X33311500Y-14288750D01*
X28901500Y-13812500D02*
X28901500Y-14288750D01*
X6510000Y-3698750D02*
X8415000Y-3698750D01*
X7110000Y-14300000D02*
X2700000Y-14300000D01*
X10920000Y-3698750D02*
X17130000Y-3698750D01*
X7110000Y-13823750D02*
X7110000Y-14300000D01*
X2700000Y-4175000D02*
X6510000Y-4175000D01*
X18881500Y-10787500D02*
X21281500Y-10787500D01*
X27596500Y-3211250D02*
X25091500Y-3211250D01*
X14730000Y-10798750D02*
X14730000Y-13823750D01*
X27596500Y-3687500D02*
X27596500Y-3211250D01*
X18881500Y-3687500D02*
X18881500Y-10787500D01*
X21281500Y-13812500D02*
X25691500Y-13812500D01*
X26996500Y-13336250D02*
X26996500Y-13812500D01*
X25091500Y-3687500D02*
X18881500Y-3687500D01*
X33311500Y-4163750D02*
X33311500Y-14288750D01*
X8415000Y-3698750D02*
X8415000Y-3222500D01*
D11*
X16165000Y-9965000D02*
X16285000Y-10085000D01*
X16285000Y-9965000D02*
X16165000Y-10085000D01*
X16665000Y-9465000D02*
X16785000Y-9585000D01*
X16785000Y-9465000D02*
X16665000Y-9585000D01*
X16665000Y-10465000D02*
X16785000Y-10585000D01*
X16785000Y-10465000D02*
X16665000Y-10585000D01*
X16915000Y-9465000D02*
X17035000Y-9585000D01*
X17035000Y-9465000D02*
X16915000Y-9585000D01*
X16915000Y-10465000D02*
X17035000Y-10585000D01*
X17035000Y-10465000D02*
X16915000Y-10585000D01*
X18965000Y-9440000D02*
X19085000Y-9560000D01*
X19085000Y-9440000D02*
X18965000Y-9560000D01*
X18965000Y-10440000D02*
X19085000Y-10560000D01*
X19085000Y-10440000D02*
X18965000Y-10560000D01*
X19215000Y-9440000D02*
X19335000Y-9560000D01*
X19335000Y-9440000D02*
X19215000Y-9560000D01*
X19215000Y-10440000D02*
X19335000Y-10560000D01*
X19335000Y-10440000D02*
X19215000Y-10560000D01*
X19715000Y-9940000D02*
X19835000Y-10060000D01*
X19835000Y-9940000D02*
X19715000Y-10060000D01*
D12*
X3535000Y-11140000D02*
G75*
G02*
X3365000Y-11140000I-85000J0D01*
G01*
X3365000Y-11140000D02*
G75*
G02*
X3535000Y-11140000I85000J0D01*
G01*
X3535000Y-13050000D02*
G75*
G02*
X3365000Y-13050000I-85000J0D01*
G01*
X3365000Y-13050000D02*
G75*
G02*
X3535000Y-13050000I85000J0D01*
G01*
X3545000Y-5416000D02*
G75*
G02*
X3375000Y-5416000I-85000J0D01*
G01*
X3375000Y-5416000D02*
G75*
G02*
X3545000Y-5416000I85000J0D01*
G01*
X3545000Y-7320000D02*
G75*
G02*
X3375000Y-7320000I-85000J0D01*
G01*
X3375000Y-7320000D02*
G75*
G02*
X3545000Y-7320000I85000J0D01*
G01*
X3545000Y-9230000D02*
G75*
G02*
X3375000Y-9230000I-85000J0D01*
G01*
X3375000Y-9230000D02*
G75*
G02*
X3545000Y-9230000I85000J0D01*
G01*
X4551000Y-11140000D02*
G75*
G02*
X4381000Y-11140000I-85000J0D01*
G01*
X4381000Y-11140000D02*
G75*
G02*
X4551000Y-11140000I85000J0D01*
G01*
X4551000Y-13050000D02*
G75*
G02*
X4381000Y-13050000I-85000J0D01*
G01*
X4381000Y-13050000D02*
G75*
G02*
X4551000Y-13050000I85000J0D01*
G01*
X4561000Y-5416000D02*
G75*
G02*
X4391000Y-5416000I-85000J0D01*
G01*
X4391000Y-5416000D02*
G75*
G02*
X4561000Y-5416000I85000J0D01*
G01*
X4561000Y-7320000D02*
G75*
G02*
X4391000Y-7320000I-85000J0D01*
G01*
X4391000Y-7320000D02*
G75*
G02*
X4561000Y-7320000I85000J0D01*
G01*
X4561000Y-9230000D02*
G75*
G02*
X4391000Y-9230000I-85000J0D01*
G01*
X4391000Y-9230000D02*
G75*
G02*
X4561000Y-9230000I85000J0D01*
G01*
X5445000Y-11140000D02*
G75*
G02*
X5275000Y-11140000I-85000J0D01*
G01*
X5275000Y-11140000D02*
G75*
G02*
X5445000Y-11140000I85000J0D01*
G01*
X5445000Y-13050000D02*
G75*
G02*
X5275000Y-13050000I-85000J0D01*
G01*
X5275000Y-13050000D02*
G75*
G02*
X5445000Y-13050000I85000J0D01*
G01*
X5450000Y-5416000D02*
G75*
G02*
X5280000Y-5416000I-85000J0D01*
G01*
X5280000Y-5416000D02*
G75*
G02*
X5450000Y-5416000I85000J0D01*
G01*
X5450000Y-9226000D02*
G75*
G02*
X5280000Y-9226000I-85000J0D01*
G01*
X5280000Y-9226000D02*
G75*
G02*
X5450000Y-9226000I85000J0D01*
G01*
X5455000Y-7320000D02*
G75*
G02*
X5285000Y-7320000I-85000J0D01*
G01*
X5285000Y-7320000D02*
G75*
G02*
X5455000Y-7320000I85000J0D01*
G01*
X6461000Y-11140000D02*
G75*
G02*
X6291000Y-11140000I-85000J0D01*
G01*
X6291000Y-11140000D02*
G75*
G02*
X6461000Y-11140000I85000J0D01*
G01*
X6461000Y-13050000D02*
G75*
G02*
X6291000Y-13050000I-85000J0D01*
G01*
X6291000Y-13050000D02*
G75*
G02*
X6461000Y-13050000I85000J0D01*
G01*
X6466000Y-5416000D02*
G75*
G02*
X6296000Y-5416000I-85000J0D01*
G01*
X6296000Y-5416000D02*
G75*
G02*
X6466000Y-5416000I85000J0D01*
G01*
X6466000Y-9226000D02*
G75*
G02*
X6296000Y-9226000I-85000J0D01*
G01*
X6296000Y-9226000D02*
G75*
G02*
X6466000Y-9226000I85000J0D01*
G01*
X6471000Y-7320000D02*
G75*
G02*
X6301000Y-7320000I-85000J0D01*
G01*
X6301000Y-7320000D02*
G75*
G02*
X6471000Y-7320000I85000J0D01*
G01*
X7350000Y-12569750D02*
G75*
G02*
X7180000Y-12569750I-85000J0D01*
G01*
X7180000Y-12569750D02*
G75*
G02*
X7350000Y-12569750I85000J0D01*
G01*
X7360000Y-4939750D02*
G75*
G02*
X7190000Y-4939750I-85000J0D01*
G01*
X7190000Y-4939750D02*
G75*
G02*
X7360000Y-4939750I85000J0D01*
G01*
X7365000Y-6843750D02*
G75*
G02*
X7195000Y-6843750I-85000J0D01*
G01*
X7195000Y-6843750D02*
G75*
G02*
X7365000Y-6843750I85000J0D01*
G01*
X7365000Y-8753750D02*
G75*
G02*
X7195000Y-8753750I-85000J0D01*
G01*
X7195000Y-8753750D02*
G75*
G02*
X7365000Y-8753750I85000J0D01*
G01*
X7365000Y-10663750D02*
G75*
G02*
X7195000Y-10663750I-85000J0D01*
G01*
X7195000Y-10663750D02*
G75*
G02*
X7365000Y-10663750I85000J0D01*
G01*
X8366000Y-12569750D02*
G75*
G02*
X8196000Y-12569750I-85000J0D01*
G01*
X8196000Y-12569750D02*
G75*
G02*
X8366000Y-12569750I85000J0D01*
G01*
X8376000Y-4939750D02*
G75*
G02*
X8206000Y-4939750I-85000J0D01*
G01*
X8206000Y-4939750D02*
G75*
G02*
X8376000Y-4939750I85000J0D01*
G01*
X8381000Y-6843750D02*
G75*
G02*
X8211000Y-6843750I-85000J0D01*
G01*
X8211000Y-6843750D02*
G75*
G02*
X8381000Y-6843750I85000J0D01*
G01*
X8381000Y-8753750D02*
G75*
G02*
X8211000Y-8753750I-85000J0D01*
G01*
X8211000Y-8753750D02*
G75*
G02*
X8381000Y-8753750I85000J0D01*
G01*
X8381000Y-10663750D02*
G75*
G02*
X8211000Y-10663750I-85000J0D01*
G01*
X8211000Y-10663750D02*
G75*
G02*
X8381000Y-10663750I85000J0D01*
G01*
X9265000Y-8277500D02*
G75*
G02*
X9095000Y-8277500I-85000J0D01*
G01*
X9095000Y-8277500D02*
G75*
G02*
X9265000Y-8277500I85000J0D01*
G01*
X9265000Y-10187500D02*
G75*
G02*
X9095000Y-10187500I-85000J0D01*
G01*
X9095000Y-10187500D02*
G75*
G02*
X9265000Y-10187500I85000J0D01*
G01*
X9267000Y-4463500D02*
G75*
G02*
X9097000Y-4463500I-85000J0D01*
G01*
X9097000Y-4463500D02*
G75*
G02*
X9267000Y-4463500I85000J0D01*
G01*
X9270000Y-6363500D02*
G75*
G02*
X9100000Y-6363500I-85000J0D01*
G01*
X9100000Y-6363500D02*
G75*
G02*
X9270000Y-6363500I85000J0D01*
G01*
X9270000Y-12093500D02*
G75*
G02*
X9100000Y-12093500I-85000J0D01*
G01*
X9100000Y-12093500D02*
G75*
G02*
X9270000Y-12093500I85000J0D01*
G01*
X10281000Y-8277500D02*
G75*
G02*
X10111000Y-8277500I-85000J0D01*
G01*
X10111000Y-8277500D02*
G75*
G02*
X10281000Y-8277500I85000J0D01*
G01*
X10281000Y-10187500D02*
G75*
G02*
X10111000Y-10187500I-85000J0D01*
G01*
X10111000Y-10187500D02*
G75*
G02*
X10281000Y-10187500I85000J0D01*
G01*
X10283000Y-4463500D02*
G75*
G02*
X10113000Y-4463500I-85000J0D01*
G01*
X10113000Y-4463500D02*
G75*
G02*
X10283000Y-4463500I85000J0D01*
G01*
X10286000Y-6363500D02*
G75*
G02*
X10116000Y-6363500I-85000J0D01*
G01*
X10116000Y-6363500D02*
G75*
G02*
X10286000Y-6363500I85000J0D01*
G01*
X10286000Y-12093500D02*
G75*
G02*
X10116000Y-12093500I-85000J0D01*
G01*
X10116000Y-12093500D02*
G75*
G02*
X10286000Y-12093500I85000J0D01*
G01*
X11160000Y-4939750D02*
G75*
G02*
X10990000Y-4939750I-85000J0D01*
G01*
X10990000Y-4939750D02*
G75*
G02*
X11160000Y-4939750I85000J0D01*
G01*
X11160000Y-6839750D02*
G75*
G02*
X10990000Y-6839750I-85000J0D01*
G01*
X10990000Y-6839750D02*
G75*
G02*
X11160000Y-6839750I85000J0D01*
G01*
X11165000Y-8753750D02*
G75*
G02*
X10995000Y-8753750I-85000J0D01*
G01*
X10995000Y-8753750D02*
G75*
G02*
X11165000Y-8753750I85000J0D01*
G01*
X11165000Y-10663750D02*
G75*
G02*
X10995000Y-10663750I-85000J0D01*
G01*
X10995000Y-10663750D02*
G75*
G02*
X11165000Y-10663750I85000J0D01*
G01*
X12120000Y-12569750D02*
G75*
G02*
X11950000Y-12569750I-85000J0D01*
G01*
X11950000Y-12569750D02*
G75*
G02*
X12120000Y-12569750I85000J0D01*
G01*
X12176000Y-4939750D02*
G75*
G02*
X12006000Y-4939750I-85000J0D01*
G01*
X12006000Y-4939750D02*
G75*
G02*
X12176000Y-4939750I85000J0D01*
G01*
X12176000Y-6839750D02*
G75*
G02*
X12006000Y-6839750I-85000J0D01*
G01*
X12006000Y-6839750D02*
G75*
G02*
X12176000Y-6839750I85000J0D01*
G01*
X12181000Y-8753750D02*
G75*
G02*
X12011000Y-8753750I-85000J0D01*
G01*
X12011000Y-8753750D02*
G75*
G02*
X12181000Y-8753750I85000J0D01*
G01*
X12181000Y-10663750D02*
G75*
G02*
X12011000Y-10663750I-85000J0D01*
G01*
X12011000Y-10663750D02*
G75*
G02*
X12181000Y-10663750I85000J0D01*
G01*
X13055000Y-8743750D02*
G75*
G02*
X12885000Y-8743750I-85000J0D01*
G01*
X12885000Y-8743750D02*
G75*
G02*
X13055000Y-8743750I85000J0D01*
G01*
X13055000Y-10665750D02*
G75*
G02*
X12885000Y-10665750I-85000J0D01*
G01*
X12885000Y-10665750D02*
G75*
G02*
X13055000Y-10665750I85000J0D01*
G01*
X13060000Y-4939750D02*
G75*
G02*
X12890000Y-4939750I-85000J0D01*
G01*
X12890000Y-4939750D02*
G75*
G02*
X13060000Y-4939750I85000J0D01*
G01*
X13065000Y-6843750D02*
G75*
G02*
X12895000Y-6843750I-85000J0D01*
G01*
X12895000Y-6843750D02*
G75*
G02*
X13065000Y-6843750I85000J0D01*
G01*
X13136000Y-12569750D02*
G75*
G02*
X12966000Y-12569750I-85000J0D01*
G01*
X12966000Y-12569750D02*
G75*
G02*
X13136000Y-12569750I85000J0D01*
G01*
X14071000Y-8743750D02*
G75*
G02*
X13901000Y-8743750I-85000J0D01*
G01*
X13901000Y-8743750D02*
G75*
G02*
X14071000Y-8743750I85000J0D01*
G01*
X14071000Y-10665750D02*
G75*
G02*
X13901000Y-10665750I-85000J0D01*
G01*
X13901000Y-10665750D02*
G75*
G02*
X14071000Y-10665750I85000J0D01*
G01*
X14076000Y-4939750D02*
G75*
G02*
X13906000Y-4939750I-85000J0D01*
G01*
X13906000Y-4939750D02*
G75*
G02*
X14076000Y-4939750I85000J0D01*
G01*
X14081000Y-6843750D02*
G75*
G02*
X13911000Y-6843750I-85000J0D01*
G01*
X13911000Y-6843750D02*
G75*
G02*
X14081000Y-6843750I85000J0D01*
G01*
X22100500Y-8742500D02*
G75*
G02*
X21930500Y-8742500I-85000J0D01*
G01*
X21930500Y-8742500D02*
G75*
G02*
X22100500Y-8742500I85000J0D01*
G01*
X22100500Y-10652500D02*
G75*
G02*
X21930500Y-10652500I-85000J0D01*
G01*
X21930500Y-10652500D02*
G75*
G02*
X22100500Y-10652500I85000J0D01*
G01*
X22104500Y-4924500D02*
G75*
G02*
X21934500Y-4924500I-85000J0D01*
G01*
X21934500Y-4924500D02*
G75*
G02*
X22104500Y-4924500I85000J0D01*
G01*
X22104500Y-6834500D02*
G75*
G02*
X21934500Y-6834500I-85000J0D01*
G01*
X21934500Y-6834500D02*
G75*
G02*
X22104500Y-6834500I85000J0D01*
G01*
X23060500Y-12562500D02*
G75*
G02*
X22890500Y-12562500I-85000J0D01*
G01*
X22890500Y-12562500D02*
G75*
G02*
X23060500Y-12562500I85000J0D01*
G01*
X23116500Y-8742500D02*
G75*
G02*
X22946500Y-8742500I-85000J0D01*
G01*
X22946500Y-8742500D02*
G75*
G02*
X23116500Y-8742500I85000J0D01*
G01*
X23116500Y-10652500D02*
G75*
G02*
X22946500Y-10652500I-85000J0D01*
G01*
X22946500Y-10652500D02*
G75*
G02*
X23116500Y-10652500I85000J0D01*
G01*
X23120500Y-4924500D02*
G75*
G02*
X22950500Y-4924500I-85000J0D01*
G01*
X22950500Y-4924500D02*
G75*
G02*
X23120500Y-4924500I85000J0D01*
G01*
X23120500Y-6834500D02*
G75*
G02*
X22950500Y-6834500I-85000J0D01*
G01*
X22950500Y-6834500D02*
G75*
G02*
X23120500Y-6834500I85000J0D01*
G01*
X24005500Y-4928500D02*
G75*
G02*
X23835500Y-4928500I-85000J0D01*
G01*
X23835500Y-4928500D02*
G75*
G02*
X24005500Y-4928500I85000J0D01*
G01*
X24005500Y-8738500D02*
G75*
G02*
X23835500Y-8738500I-85000J0D01*
G01*
X23835500Y-8738500D02*
G75*
G02*
X24005500Y-8738500I85000J0D01*
G01*
X24005500Y-10652500D02*
G75*
G02*
X23835500Y-10652500I-85000J0D01*
G01*
X23835500Y-10652500D02*
G75*
G02*
X24005500Y-10652500I85000J0D01*
G01*
X24010500Y-6832500D02*
G75*
G02*
X23840500Y-6832500I-85000J0D01*
G01*
X23840500Y-6832500D02*
G75*
G02*
X24010500Y-6832500I85000J0D01*
G01*
X24076500Y-12562500D02*
G75*
G02*
X23906500Y-12562500I-85000J0D01*
G01*
X23906500Y-12562500D02*
G75*
G02*
X24076500Y-12562500I85000J0D01*
G01*
X25021500Y-4928500D02*
G75*
G02*
X24851500Y-4928500I-85000J0D01*
G01*
X24851500Y-4928500D02*
G75*
G02*
X25021500Y-4928500I85000J0D01*
G01*
X25021500Y-8738500D02*
G75*
G02*
X24851500Y-8738500I-85000J0D01*
G01*
X24851500Y-8738500D02*
G75*
G02*
X25021500Y-8738500I85000J0D01*
G01*
X25021500Y-10652500D02*
G75*
G02*
X24851500Y-10652500I-85000J0D01*
G01*
X24851500Y-10652500D02*
G75*
G02*
X25021500Y-10652500I85000J0D01*
G01*
X25026500Y-6832500D02*
G75*
G02*
X24856500Y-6832500I-85000J0D01*
G01*
X24856500Y-6832500D02*
G75*
G02*
X25026500Y-6832500I85000J0D01*
G01*
X25910500Y-4456250D02*
G75*
G02*
X25740500Y-4456250I-85000J0D01*
G01*
X25740500Y-4456250D02*
G75*
G02*
X25910500Y-4456250I85000J0D01*
G01*
X25910500Y-6356250D02*
G75*
G02*
X25740500Y-6356250I-85000J0D01*
G01*
X25740500Y-6356250D02*
G75*
G02*
X25910500Y-6356250I85000J0D01*
G01*
X25920500Y-8276250D02*
G75*
G02*
X25750500Y-8276250I-85000J0D01*
G01*
X25750500Y-8276250D02*
G75*
G02*
X25920500Y-8276250I85000J0D01*
G01*
X25920500Y-10176250D02*
G75*
G02*
X25750500Y-10176250I-85000J0D01*
G01*
X25750500Y-10176250D02*
G75*
G02*
X25920500Y-10176250I85000J0D01*
G01*
X25920500Y-12086250D02*
G75*
G02*
X25750500Y-12086250I-85000J0D01*
G01*
X25750500Y-12086250D02*
G75*
G02*
X25920500Y-12086250I85000J0D01*
G01*
X26926500Y-4456250D02*
G75*
G02*
X26756500Y-4456250I-85000J0D01*
G01*
X26756500Y-4456250D02*
G75*
G02*
X26926500Y-4456250I85000J0D01*
G01*
X26926500Y-6356250D02*
G75*
G02*
X26756500Y-6356250I-85000J0D01*
G01*
X26756500Y-6356250D02*
G75*
G02*
X26926500Y-6356250I85000J0D01*
G01*
X26936500Y-8276250D02*
G75*
G02*
X26766500Y-8276250I-85000J0D01*
G01*
X26766500Y-8276250D02*
G75*
G02*
X26936500Y-8276250I85000J0D01*
G01*
X26936500Y-10176250D02*
G75*
G02*
X26766500Y-10176250I-85000J0D01*
G01*
X26766500Y-10176250D02*
G75*
G02*
X26936500Y-10176250I85000J0D01*
G01*
X26936500Y-12086250D02*
G75*
G02*
X26766500Y-12086250I-85000J0D01*
G01*
X26766500Y-12086250D02*
G75*
G02*
X26936500Y-12086250I85000J0D01*
G01*
X27810500Y-4932500D02*
G75*
G02*
X27640500Y-4932500I-85000J0D01*
G01*
X27640500Y-4932500D02*
G75*
G02*
X27810500Y-4932500I85000J0D01*
G01*
X27810500Y-8742500D02*
G75*
G02*
X27640500Y-8742500I-85000J0D01*
G01*
X27640500Y-8742500D02*
G75*
G02*
X27810500Y-8742500I85000J0D01*
G01*
X27810500Y-10652500D02*
G75*
G02*
X27640500Y-10652500I-85000J0D01*
G01*
X27640500Y-10652500D02*
G75*
G02*
X27810500Y-10652500I85000J0D01*
G01*
X27810500Y-12562500D02*
G75*
G02*
X27640500Y-12562500I-85000J0D01*
G01*
X27640500Y-12562500D02*
G75*
G02*
X27810500Y-12562500I85000J0D01*
G01*
X27820500Y-6832500D02*
G75*
G02*
X27650500Y-6832500I-85000J0D01*
G01*
X27650500Y-6832500D02*
G75*
G02*
X27820500Y-6832500I85000J0D01*
G01*
X28826500Y-4932500D02*
G75*
G02*
X28656500Y-4932500I-85000J0D01*
G01*
X28656500Y-4932500D02*
G75*
G02*
X28826500Y-4932500I85000J0D01*
G01*
X28826500Y-8742500D02*
G75*
G02*
X28656500Y-8742500I-85000J0D01*
G01*
X28656500Y-8742500D02*
G75*
G02*
X28826500Y-8742500I85000J0D01*
G01*
X28826500Y-10652500D02*
G75*
G02*
X28656500Y-10652500I-85000J0D01*
G01*
X28656500Y-10652500D02*
G75*
G02*
X28826500Y-10652500I85000J0D01*
G01*
X28826500Y-12562500D02*
G75*
G02*
X28656500Y-12562500I-85000J0D01*
G01*
X28656500Y-12562500D02*
G75*
G02*
X28826500Y-12562500I85000J0D01*
G01*
X28836500Y-6832500D02*
G75*
G02*
X28666500Y-6832500I-85000J0D01*
G01*
X28666500Y-6832500D02*
G75*
G02*
X28836500Y-6832500I85000J0D01*
G01*
X29715500Y-13034750D02*
G75*
G02*
X29545500Y-13034750I-85000J0D01*
G01*
X29545500Y-13034750D02*
G75*
G02*
X29715500Y-13034750I85000J0D01*
G01*
X29720500Y-5408750D02*
G75*
G02*
X29550500Y-5408750I-85000J0D01*
G01*
X29550500Y-5408750D02*
G75*
G02*
X29720500Y-5408750I85000J0D01*
G01*
X29720500Y-7308750D02*
G75*
G02*
X29550500Y-7308750I-85000J0D01*
G01*
X29550500Y-7308750D02*
G75*
G02*
X29720500Y-7308750I85000J0D01*
G01*
X29720500Y-9218750D02*
G75*
G02*
X29550500Y-9218750I-85000J0D01*
G01*
X29550500Y-9218750D02*
G75*
G02*
X29720500Y-9218750I85000J0D01*
G01*
X29720500Y-11118750D02*
G75*
G02*
X29550500Y-11118750I-85000J0D01*
G01*
X29550500Y-11118750D02*
G75*
G02*
X29720500Y-11118750I85000J0D01*
G01*
X30731500Y-13034750D02*
G75*
G02*
X30561500Y-13034750I-85000J0D01*
G01*
X30561500Y-13034750D02*
G75*
G02*
X30731500Y-13034750I85000J0D01*
G01*
X30736500Y-5408750D02*
G75*
G02*
X30566500Y-5408750I-85000J0D01*
G01*
X30566500Y-5408750D02*
G75*
G02*
X30736500Y-5408750I85000J0D01*
G01*
X30736500Y-7308750D02*
G75*
G02*
X30566500Y-7308750I-85000J0D01*
G01*
X30566500Y-7308750D02*
G75*
G02*
X30736500Y-7308750I85000J0D01*
G01*
X30736500Y-9218750D02*
G75*
G02*
X30566500Y-9218750I-85000J0D01*
G01*
X30566500Y-9218750D02*
G75*
G02*
X30736500Y-9218750I85000J0D01*
G01*
X30736500Y-11118750D02*
G75*
G02*
X30566500Y-11118750I-85000J0D01*
G01*
X30566500Y-11118750D02*
G75*
G02*
X30736500Y-11118750I85000J0D01*
G01*
X31630500Y-7308750D02*
G75*
G02*
X31460500Y-7308750I-85000J0D01*
G01*
X31460500Y-7308750D02*
G75*
G02*
X31630500Y-7308750I85000J0D01*
G01*
X31630500Y-9218750D02*
G75*
G02*
X31460500Y-9218750I-85000J0D01*
G01*
X31460500Y-9218750D02*
G75*
G02*
X31630500Y-9218750I85000J0D01*
G01*
X31630500Y-11118750D02*
G75*
G02*
X31460500Y-11118750I-85000J0D01*
G01*
X31460500Y-11118750D02*
G75*
G02*
X31630500Y-11118750I85000J0D01*
G01*
X31630500Y-13038750D02*
G75*
G02*
X31460500Y-13038750I-85000J0D01*
G01*
X31460500Y-13038750D02*
G75*
G02*
X31630500Y-13038750I85000J0D01*
G01*
X31635500Y-5414750D02*
G75*
G02*
X31465500Y-5414750I-85000J0D01*
G01*
X31465500Y-5414750D02*
G75*
G02*
X31635500Y-5414750I85000J0D01*
G01*
X32646500Y-7308750D02*
G75*
G02*
X32476500Y-7308750I-85000J0D01*
G01*
X32476500Y-7308750D02*
G75*
G02*
X32646500Y-7308750I85000J0D01*
G01*
X32646500Y-9218750D02*
G75*
G02*
X32476500Y-9218750I-85000J0D01*
G01*
X32476500Y-9218750D02*
G75*
G02*
X32646500Y-9218750I85000J0D01*
G01*
X32646500Y-11118750D02*
G75*
G02*
X32476500Y-11118750I-85000J0D01*
G01*
X32476500Y-11118750D02*
G75*
G02*
X32646500Y-11118750I85000J0D01*
G01*
X32646500Y-13038750D02*
G75*
G02*
X32476500Y-13038750I-85000J0D01*
G01*
X32476500Y-13038750D02*
G75*
G02*
X32646500Y-13038750I85000J0D01*
G01*
X32651500Y-5414750D02*
G75*
G02*
X32481500Y-5414750I-85000J0D01*
G01*
X32481500Y-5414750D02*
G75*
G02*
X32651500Y-5414750I85000J0D01*
G01*
D13*
X11353000Y-11717250D02*
X11353000Y-12022250D01*
X11200500Y-11869750D02*
X11505500Y-11869750D01*
X13733000Y-11717250D02*
X13733000Y-12022250D01*
X13580500Y-11869750D02*
X13885500Y-11869750D01*
X22293500Y-11710000D02*
X22293500Y-12015000D01*
X22141000Y-11862500D02*
X22446000Y-11862500D01*
X24673500Y-11710000D02*
X24673500Y-12015000D01*
X24521000Y-11862500D02*
X24826000Y-11862500D01*
D14*
X4099423Y-11281423D02*
X4099423Y-10998577D01*
X3816577Y-10998577D01*
X3816577Y-11281423D01*
X4099423Y-11281423D01*
X4099423Y-13191423D02*
X4099423Y-12908577D01*
X3816577Y-12908577D01*
X3816577Y-13191423D01*
X4099423Y-13191423D01*
X4109423Y-5557423D02*
X4109423Y-5274577D01*
X3826577Y-5274577D01*
X3826577Y-5557423D01*
X4109423Y-5557423D01*
X4109423Y-7461423D02*
X4109423Y-7178577D01*
X3826577Y-7178577D01*
X3826577Y-7461423D01*
X4109423Y-7461423D01*
X4109423Y-9371423D02*
X4109423Y-9088577D01*
X3826577Y-9088577D01*
X3826577Y-9371423D01*
X4109423Y-9371423D01*
X6009423Y-11281423D02*
X6009423Y-10998577D01*
X5726577Y-10998577D01*
X5726577Y-11281423D01*
X6009423Y-11281423D01*
X6009423Y-13191423D02*
X6009423Y-12908577D01*
X5726577Y-12908577D01*
X5726577Y-13191423D01*
X6009423Y-13191423D01*
X6014423Y-5557423D02*
X6014423Y-5274577D01*
X5731577Y-5274577D01*
X5731577Y-5557423D01*
X6014423Y-5557423D01*
X6014423Y-9367423D02*
X6014423Y-9084577D01*
X5731577Y-9084577D01*
X5731577Y-9367423D01*
X6014423Y-9367423D01*
X6019423Y-7461423D02*
X6019423Y-7178577D01*
X5736577Y-7178577D01*
X5736577Y-7461423D01*
X6019423Y-7461423D01*
X7914423Y-12711173D02*
X7914423Y-12428327D01*
X7631577Y-12428327D01*
X7631577Y-12711173D01*
X7914423Y-12711173D01*
X7924423Y-5081173D02*
X7924423Y-4798327D01*
X7641577Y-4798327D01*
X7641577Y-5081173D01*
X7924423Y-5081173D01*
X7929423Y-6985173D02*
X7929423Y-6702327D01*
X7646577Y-6702327D01*
X7646577Y-6985173D01*
X7929423Y-6985173D01*
X7929423Y-8895173D02*
X7929423Y-8612327D01*
X7646577Y-8612327D01*
X7646577Y-8895173D01*
X7929423Y-8895173D01*
X7929423Y-10805173D02*
X7929423Y-10522327D01*
X7646577Y-10522327D01*
X7646577Y-10805173D01*
X7929423Y-10805173D01*
X9829423Y-8418923D02*
X9829423Y-8136077D01*
X9546577Y-8136077D01*
X9546577Y-8418923D01*
X9829423Y-8418923D01*
X9829423Y-10328923D02*
X9829423Y-10046077D01*
X9546577Y-10046077D01*
X9546577Y-10328923D01*
X9829423Y-10328923D01*
X9831423Y-4604923D02*
X9831423Y-4322077D01*
X9548577Y-4322077D01*
X9548577Y-4604923D01*
X9831423Y-4604923D01*
X9834423Y-6504923D02*
X9834423Y-6222077D01*
X9551577Y-6222077D01*
X9551577Y-6504923D01*
X9834423Y-6504923D01*
X9834423Y-12234923D02*
X9834423Y-11952077D01*
X9551577Y-11952077D01*
X9551577Y-12234923D01*
X9834423Y-12234923D01*
X11494423Y-13535173D02*
X11494423Y-13252327D01*
X11211577Y-13252327D01*
X11211577Y-13535173D01*
X11494423Y-13535173D01*
X11724423Y-5081173D02*
X11724423Y-4798327D01*
X11441577Y-4798327D01*
X11441577Y-5081173D01*
X11724423Y-5081173D01*
X11724423Y-6981173D02*
X11724423Y-6698327D01*
X11441577Y-6698327D01*
X11441577Y-6981173D01*
X11724423Y-6981173D01*
X11729423Y-8895173D02*
X11729423Y-8612327D01*
X11446577Y-8612327D01*
X11446577Y-8895173D01*
X11729423Y-8895173D01*
X11729423Y-10805173D02*
X11729423Y-10522327D01*
X11446577Y-10522327D01*
X11446577Y-10805173D01*
X11729423Y-10805173D01*
X12684423Y-12711173D02*
X12684423Y-12428327D01*
X12401577Y-12428327D01*
X12401577Y-12711173D01*
X12684423Y-12711173D01*
X13619423Y-8885173D02*
X13619423Y-8602327D01*
X13336577Y-8602327D01*
X13336577Y-8885173D01*
X13619423Y-8885173D01*
X13619423Y-10807173D02*
X13619423Y-10524327D01*
X13336577Y-10524327D01*
X13336577Y-10807173D01*
X13619423Y-10807173D01*
X13624423Y-5081173D02*
X13624423Y-4798327D01*
X13341577Y-4798327D01*
X13341577Y-5081173D01*
X13624423Y-5081173D01*
X13629423Y-6985173D02*
X13629423Y-6702327D01*
X13346577Y-6702327D01*
X13346577Y-6985173D01*
X13629423Y-6985173D01*
X13874423Y-13535173D02*
X13874423Y-13252327D01*
X13591577Y-13252327D01*
X13591577Y-13535173D01*
X13874423Y-13535173D01*
X22434923Y-13527923D02*
X22434923Y-13245077D01*
X22152077Y-13245077D01*
X22152077Y-13527923D01*
X22434923Y-13527923D01*
X22664923Y-8883923D02*
X22664923Y-8601077D01*
X22382077Y-8601077D01*
X22382077Y-8883923D01*
X22664923Y-8883923D01*
X22664923Y-10793923D02*
X22664923Y-10511077D01*
X22382077Y-10511077D01*
X22382077Y-10793923D01*
X22664923Y-10793923D01*
X22668923Y-5065923D02*
X22668923Y-4783077D01*
X22386077Y-4783077D01*
X22386077Y-5065923D01*
X22668923Y-5065923D01*
X22668923Y-6975923D02*
X22668923Y-6693077D01*
X22386077Y-6693077D01*
X22386077Y-6975923D01*
X22668923Y-6975923D01*
X23624923Y-12703923D02*
X23624923Y-12421077D01*
X23342077Y-12421077D01*
X23342077Y-12703923D01*
X23624923Y-12703923D01*
X24569923Y-5069923D02*
X24569923Y-4787077D01*
X24287077Y-4787077D01*
X24287077Y-5069923D01*
X24569923Y-5069923D01*
X24569923Y-8879923D02*
X24569923Y-8597077D01*
X24287077Y-8597077D01*
X24287077Y-8879923D01*
X24569923Y-8879923D01*
X24569923Y-10793923D02*
X24569923Y-10511077D01*
X24287077Y-10511077D01*
X24287077Y-10793923D01*
X24569923Y-10793923D01*
X24574923Y-6973923D02*
X24574923Y-6691077D01*
X24292077Y-6691077D01*
X24292077Y-6973923D01*
X24574923Y-6973923D01*
X24814923Y-13527923D02*
X24814923Y-13245077D01*
X24532077Y-13245077D01*
X24532077Y-13527923D01*
X24814923Y-13527923D01*
X26474923Y-4597673D02*
X26474923Y-4314827D01*
X26192077Y-4314827D01*
X26192077Y-4597673D01*
X26474923Y-4597673D01*
X26474923Y-6497673D02*
X26474923Y-6214827D01*
X26192077Y-6214827D01*
X26192077Y-6497673D01*
X26474923Y-6497673D01*
X26484923Y-8417673D02*
X26484923Y-8134827D01*
X26202077Y-8134827D01*
X26202077Y-8417673D01*
X26484923Y-8417673D01*
X26484923Y-10317673D02*
X26484923Y-10034827D01*
X26202077Y-10034827D01*
X26202077Y-10317673D01*
X26484923Y-10317673D01*
X26484923Y-12227673D02*
X26484923Y-11944827D01*
X26202077Y-11944827D01*
X26202077Y-12227673D01*
X26484923Y-12227673D01*
X28374923Y-5073923D02*
X28374923Y-4791077D01*
X28092077Y-4791077D01*
X28092077Y-5073923D01*
X28374923Y-5073923D01*
X28374923Y-8883923D02*
X28374923Y-8601077D01*
X28092077Y-8601077D01*
X28092077Y-8883923D01*
X28374923Y-8883923D01*
X28374923Y-10793923D02*
X28374923Y-10511077D01*
X28092077Y-10511077D01*
X28092077Y-10793923D01*
X28374923Y-10793923D01*
X28374923Y-12703923D02*
X28374923Y-12421077D01*
X28092077Y-12421077D01*
X28092077Y-12703923D01*
X28374923Y-12703923D01*
X28384923Y-6973923D02*
X28384923Y-6691077D01*
X28102077Y-6691077D01*
X28102077Y-6973923D01*
X28384923Y-6973923D01*
X30279923Y-13176173D02*
X30279923Y-12893327D01*
X29997077Y-12893327D01*
X29997077Y-13176173D01*
X30279923Y-13176173D01*
X30284923Y-5550173D02*
X30284923Y-5267327D01*
X30002077Y-5267327D01*
X30002077Y-5550173D01*
X30284923Y-5550173D01*
X30284923Y-7450173D02*
X30284923Y-7167327D01*
X30002077Y-7167327D01*
X30002077Y-7450173D01*
X30284923Y-7450173D01*
X30284923Y-9360173D02*
X30284923Y-9077327D01*
X30002077Y-9077327D01*
X30002077Y-9360173D01*
X30284923Y-9360173D01*
X30284923Y-11260173D02*
X30284923Y-10977327D01*
X30002077Y-10977327D01*
X30002077Y-11260173D01*
X30284923Y-11260173D01*
X32194923Y-7450173D02*
X32194923Y-7167327D01*
X31912077Y-7167327D01*
X31912077Y-7450173D01*
X32194923Y-7450173D01*
X32194923Y-9360173D02*
X32194923Y-9077327D01*
X31912077Y-9077327D01*
X31912077Y-9360173D01*
X32194923Y-9360173D01*
X32194923Y-11260173D02*
X32194923Y-10977327D01*
X31912077Y-10977327D01*
X31912077Y-11260173D01*
X32194923Y-11260173D01*
X32194923Y-13180173D02*
X32194923Y-12897327D01*
X31912077Y-12897327D01*
X31912077Y-13180173D01*
X32194923Y-13180173D01*
X32199923Y-5556173D02*
X32199923Y-5273327D01*
X31917077Y-5273327D01*
X31917077Y-5556173D01*
X32199923Y-5556173D01*
D10*
X2950777Y-14621484D02*
X2950777Y-14421484D01*
X2950777Y-14421484D02*
X2998396Y-14421484D01*
X2998396Y-14421484D02*
X3026967Y-14431008D01*
X3026967Y-14431008D02*
X3046015Y-14450055D01*
X3046015Y-14450055D02*
X3055539Y-14469103D01*
X3055539Y-14469103D02*
X3065062Y-14507198D01*
X3065062Y-14507198D02*
X3065062Y-14535769D01*
X3065062Y-14535769D02*
X3055539Y-14573865D01*
X3055539Y-14573865D02*
X3046015Y-14592912D01*
X3046015Y-14592912D02*
X3026967Y-14611960D01*
X3026967Y-14611960D02*
X2998396Y-14621484D01*
X2998396Y-14621484D02*
X2950777Y-14621484D01*
X3150777Y-14621484D02*
X3150777Y-14488150D01*
X3150777Y-14526246D02*
X3160301Y-14507198D01*
X3160301Y-14507198D02*
X3169824Y-14497674D01*
X3169824Y-14497674D02*
X3188872Y-14488150D01*
X3188872Y-14488150D02*
X3207920Y-14488150D01*
X3274586Y-14621484D02*
X3274586Y-14488150D01*
X3274586Y-14421484D02*
X3265062Y-14431008D01*
X3265062Y-14431008D02*
X3274586Y-14440531D01*
X3274586Y-14440531D02*
X3284110Y-14431008D01*
X3284110Y-14431008D02*
X3274586Y-14421484D01*
X3274586Y-14421484D02*
X3274586Y-14440531D01*
X3398396Y-14621484D02*
X3379348Y-14611960D01*
X3379348Y-14611960D02*
X3369824Y-14592912D01*
X3369824Y-14592912D02*
X3369824Y-14421484D01*
X3503158Y-14621484D02*
X3484110Y-14611960D01*
X3484110Y-14611960D02*
X3474586Y-14592912D01*
X3474586Y-14592912D02*
X3474586Y-14421484D01*
X3731729Y-14621484D02*
X3731729Y-14421484D01*
X3731729Y-14421484D02*
X3798396Y-14564341D01*
X3798396Y-14564341D02*
X3865062Y-14421484D01*
X3865062Y-14421484D02*
X3865062Y-14621484D01*
X4046015Y-14621484D02*
X4046015Y-14516722D01*
X4046015Y-14516722D02*
X4036491Y-14497674D01*
X4036491Y-14497674D02*
X4017443Y-14488150D01*
X4017443Y-14488150D02*
X3979348Y-14488150D01*
X3979348Y-14488150D02*
X3960301Y-14497674D01*
X4046015Y-14611960D02*
X4026967Y-14621484D01*
X4026967Y-14621484D02*
X3979348Y-14621484D01*
X3979348Y-14621484D02*
X3960301Y-14611960D01*
X3960301Y-14611960D02*
X3950777Y-14592912D01*
X3950777Y-14592912D02*
X3950777Y-14573865D01*
X3950777Y-14573865D02*
X3960301Y-14554817D01*
X3960301Y-14554817D02*
X3979348Y-14545293D01*
X3979348Y-14545293D02*
X4026967Y-14545293D01*
X4026967Y-14545293D02*
X4046015Y-14535769D01*
X4141253Y-14488150D02*
X4141253Y-14688150D01*
X4141253Y-14497674D02*
X4160301Y-14488150D01*
X4160301Y-14488150D02*
X4198396Y-14488150D01*
X4198396Y-14488150D02*
X4217444Y-14497674D01*
X4217444Y-14497674D02*
X4226967Y-14507198D01*
X4226967Y-14507198D02*
X4236491Y-14526246D01*
X4236491Y-14526246D02*
X4236491Y-14583388D01*
X4236491Y-14583388D02*
X4226967Y-14602436D01*
X4226967Y-14602436D02*
X4217444Y-14611960D01*
X4217444Y-14611960D02*
X4198396Y-14621484D01*
X4198396Y-14621484D02*
X4160301Y-14621484D01*
X4160301Y-14621484D02*
X4141253Y-14611960D01*
X4322205Y-14602436D02*
X4331729Y-14611960D01*
X4331729Y-14611960D02*
X4322205Y-14621484D01*
X4322205Y-14621484D02*
X4312682Y-14611960D01*
X4312682Y-14611960D02*
X4322205Y-14602436D01*
X4322205Y-14602436D02*
X4322205Y-14621484D01*
X4322205Y-14497674D02*
X4331729Y-14507198D01*
X4331729Y-14507198D02*
X4322205Y-14516722D01*
X4322205Y-14516722D02*
X4312682Y-14507198D01*
X4312682Y-14507198D02*
X4322205Y-14497674D01*
X4322205Y-14497674D02*
X4322205Y-14516722D01*
D11*
X2570000Y-14890000D02*
X2690000Y-15010000D01*
X2690000Y-14890000D02*
X2570000Y-15010000D01*
D10*
X3055539Y-15041484D02*
X2941253Y-15041484D01*
X2998396Y-15041484D02*
X2998396Y-14841484D01*
X2998396Y-14841484D02*
X2979348Y-14870055D01*
X2979348Y-14870055D02*
X2960301Y-14889103D01*
X2960301Y-14889103D02*
X2941253Y-14898627D01*
X3141253Y-15022436D02*
X3150777Y-15031960D01*
X3150777Y-15031960D02*
X3141253Y-15041484D01*
X3141253Y-15041484D02*
X3131729Y-15031960D01*
X3131729Y-15031960D02*
X3141253Y-15022436D01*
X3141253Y-15022436D02*
X3141253Y-15041484D01*
X3226967Y-14860531D02*
X3236491Y-14851008D01*
X3236491Y-14851008D02*
X3255539Y-14841484D01*
X3255539Y-14841484D02*
X3303158Y-14841484D01*
X3303158Y-14841484D02*
X3322205Y-14851008D01*
X3322205Y-14851008D02*
X3331729Y-14860531D01*
X3331729Y-14860531D02*
X3341253Y-14879579D01*
X3341253Y-14879579D02*
X3341253Y-14898627D01*
X3341253Y-14898627D02*
X3331729Y-14927198D01*
X3331729Y-14927198D02*
X3217443Y-15041484D01*
X3217443Y-15041484D02*
X3341253Y-15041484D01*
X3465062Y-14841484D02*
X3484110Y-14841484D01*
X3484110Y-14841484D02*
X3503158Y-14851008D01*
X3503158Y-14851008D02*
X3512682Y-14860531D01*
X3512682Y-14860531D02*
X3522205Y-14879579D01*
X3522205Y-14879579D02*
X3531729Y-14917674D01*
X3531729Y-14917674D02*
X3531729Y-14965293D01*
X3531729Y-14965293D02*
X3522205Y-15003388D01*
X3522205Y-15003388D02*
X3512682Y-15022436D01*
X3512682Y-15022436D02*
X3503158Y-15031960D01*
X3503158Y-15031960D02*
X3484110Y-15041484D01*
X3484110Y-15041484D02*
X3465062Y-15041484D01*
X3465062Y-15041484D02*
X3446015Y-15031960D01*
X3446015Y-15031960D02*
X3436491Y-15022436D01*
X3436491Y-15022436D02*
X3426967Y-15003388D01*
X3426967Y-15003388D02*
X3417443Y-14965293D01*
X3417443Y-14965293D02*
X3417443Y-14917674D01*
X3417443Y-14917674D02*
X3426967Y-14879579D01*
X3426967Y-14879579D02*
X3436491Y-14860531D01*
X3436491Y-14860531D02*
X3446015Y-14851008D01*
X3446015Y-14851008D02*
X3465062Y-14841484D01*
X3655539Y-14841484D02*
X3674586Y-14841484D01*
X3674586Y-14841484D02*
X3693634Y-14851008D01*
X3693634Y-14851008D02*
X3703158Y-14860531D01*
X3703158Y-14860531D02*
X3712682Y-14879579D01*
X3712682Y-14879579D02*
X3722205Y-14917674D01*
X3722205Y-14917674D02*
X3722205Y-14965293D01*
X3722205Y-14965293D02*
X3712682Y-15003388D01*
X3712682Y-15003388D02*
X3703158Y-15022436D01*
X3703158Y-15022436D02*
X3693634Y-15031960D01*
X3693634Y-15031960D02*
X3674586Y-15041484D01*
X3674586Y-15041484D02*
X3655539Y-15041484D01*
X3655539Y-15041484D02*
X3636491Y-15031960D01*
X3636491Y-15031960D02*
X3626967Y-15022436D01*
X3626967Y-15022436D02*
X3617443Y-15003388D01*
X3617443Y-15003388D02*
X3607920Y-14965293D01*
X3607920Y-14965293D02*
X3607920Y-14917674D01*
X3607920Y-14917674D02*
X3617443Y-14879579D01*
X3617443Y-14879579D02*
X3626967Y-14860531D01*
X3626967Y-14860531D02*
X3636491Y-14851008D01*
X3636491Y-14851008D02*
X3655539Y-14841484D01*
X3807920Y-15041484D02*
X3807920Y-14908150D01*
X3807920Y-14927198D02*
X3817443Y-14917674D01*
X3817443Y-14917674D02*
X3836491Y-14908150D01*
X3836491Y-14908150D02*
X3865063Y-14908150D01*
X3865063Y-14908150D02*
X3884110Y-14917674D01*
X3884110Y-14917674D02*
X3893634Y-14936722D01*
X3893634Y-14936722D02*
X3893634Y-15041484D01*
X3893634Y-14936722D02*
X3903158Y-14917674D01*
X3903158Y-14917674D02*
X3922205Y-14908150D01*
X3922205Y-14908150D02*
X3950777Y-14908150D01*
X3950777Y-14908150D02*
X3969824Y-14917674D01*
X3969824Y-14917674D02*
X3979348Y-14936722D01*
X3979348Y-14936722D02*
X3979348Y-15041484D01*
X4074586Y-15041484D02*
X4074586Y-14908150D01*
X4074586Y-14927198D02*
X4084110Y-14917674D01*
X4084110Y-14917674D02*
X4103158Y-14908150D01*
X4103158Y-14908150D02*
X4131729Y-14908150D01*
X4131729Y-14908150D02*
X4150777Y-14917674D01*
X4150777Y-14917674D02*
X4160301Y-14936722D01*
X4160301Y-14936722D02*
X4160301Y-15041484D01*
X4160301Y-14936722D02*
X4169824Y-14917674D01*
X4169824Y-14917674D02*
X4188872Y-14908150D01*
X4188872Y-14908150D02*
X4217444Y-14908150D01*
X4217444Y-14908150D02*
X4236491Y-14917674D01*
X4236491Y-14917674D02*
X4246015Y-14936722D01*
X4246015Y-14936722D02*
X4246015Y-15041484D01*
X4636491Y-14831960D02*
X4465063Y-15089103D01*
X4893634Y-14841484D02*
X4912682Y-14841484D01*
X4912682Y-14841484D02*
X4931729Y-14851008D01*
X4931729Y-14851008D02*
X4941253Y-14860531D01*
X4941253Y-14860531D02*
X4950777Y-14879579D01*
X4950777Y-14879579D02*
X4960301Y-14917674D01*
X4960301Y-14917674D02*
X4960301Y-14965293D01*
X4960301Y-14965293D02*
X4950777Y-15003388D01*
X4950777Y-15003388D02*
X4941253Y-15022436D01*
X4941253Y-15022436D02*
X4931729Y-15031960D01*
X4931729Y-15031960D02*
X4912682Y-15041484D01*
X4912682Y-15041484D02*
X4893634Y-15041484D01*
X4893634Y-15041484D02*
X4874587Y-15031960D01*
X4874587Y-15031960D02*
X4865063Y-15022436D01*
X4865063Y-15022436D02*
X4855539Y-15003388D01*
X4855539Y-15003388D02*
X4846015Y-14965293D01*
X4846015Y-14965293D02*
X4846015Y-14917674D01*
X4846015Y-14917674D02*
X4855539Y-14879579D01*
X4855539Y-14879579D02*
X4865063Y-14860531D01*
X4865063Y-14860531D02*
X4874587Y-14851008D01*
X4874587Y-14851008D02*
X4893634Y-14841484D01*
X5046015Y-15022436D02*
X5055539Y-15031960D01*
X5055539Y-15031960D02*
X5046015Y-15041484D01*
X5046015Y-15041484D02*
X5036491Y-15031960D01*
X5036491Y-15031960D02*
X5046015Y-15022436D01*
X5046015Y-15022436D02*
X5046015Y-15041484D01*
X5179348Y-14841484D02*
X5198396Y-14841484D01*
X5198396Y-14841484D02*
X5217444Y-14851008D01*
X5217444Y-14851008D02*
X5226968Y-14860531D01*
X5226968Y-14860531D02*
X5236491Y-14879579D01*
X5236491Y-14879579D02*
X5246015Y-14917674D01*
X5246015Y-14917674D02*
X5246015Y-14965293D01*
X5246015Y-14965293D02*
X5236491Y-15003388D01*
X5236491Y-15003388D02*
X5226968Y-15022436D01*
X5226968Y-15022436D02*
X5217444Y-15031960D01*
X5217444Y-15031960D02*
X5198396Y-15041484D01*
X5198396Y-15041484D02*
X5179348Y-15041484D01*
X5179348Y-15041484D02*
X5160301Y-15031960D01*
X5160301Y-15031960D02*
X5150777Y-15022436D01*
X5150777Y-15022436D02*
X5141253Y-15003388D01*
X5141253Y-15003388D02*
X5131729Y-14965293D01*
X5131729Y-14965293D02*
X5131729Y-14917674D01*
X5131729Y-14917674D02*
X5141253Y-14879579D01*
X5141253Y-14879579D02*
X5150777Y-14860531D01*
X5150777Y-14860531D02*
X5160301Y-14851008D01*
X5160301Y-14851008D02*
X5179348Y-14841484D01*
X5417444Y-14908150D02*
X5417444Y-15041484D01*
X5369825Y-14831960D02*
X5322206Y-14974817D01*
X5322206Y-14974817D02*
X5446015Y-14974817D01*
X5503158Y-14841484D02*
X5636491Y-14841484D01*
X5636491Y-14841484D02*
X5550777Y-15041484D01*
X5703158Y-14860531D02*
X5712682Y-14851008D01*
X5712682Y-14851008D02*
X5731729Y-14841484D01*
X5731729Y-14841484D02*
X5779348Y-14841484D01*
X5779348Y-14841484D02*
X5798396Y-14851008D01*
X5798396Y-14851008D02*
X5807920Y-14860531D01*
X5807920Y-14860531D02*
X5817444Y-14879579D01*
X5817444Y-14879579D02*
X5817444Y-14898627D01*
X5817444Y-14898627D02*
X5807920Y-14927198D01*
X5807920Y-14927198D02*
X5693634Y-15041484D01*
X5693634Y-15041484D02*
X5817444Y-15041484D01*
X5893634Y-14841484D02*
X5893634Y-14879579D01*
X5969825Y-14841484D02*
X5969825Y-14879579D01*
X6265063Y-15117674D02*
X6255539Y-15108150D01*
X6255539Y-15108150D02*
X6236491Y-15079579D01*
X6236491Y-15079579D02*
X6226968Y-15060531D01*
X6226968Y-15060531D02*
X6217444Y-15031960D01*
X6217444Y-15031960D02*
X6207920Y-14984341D01*
X6207920Y-14984341D02*
X6207920Y-14946246D01*
X6207920Y-14946246D02*
X6217444Y-14898627D01*
X6217444Y-14898627D02*
X6226968Y-14870055D01*
X6226968Y-14870055D02*
X6236491Y-14851008D01*
X6236491Y-14851008D02*
X6255539Y-14822436D01*
X6255539Y-14822436D02*
X6265063Y-14812912D01*
X6446015Y-15041484D02*
X6331729Y-15041484D01*
X6388872Y-15041484D02*
X6388872Y-14841484D01*
X6388872Y-14841484D02*
X6369825Y-14870055D01*
X6369825Y-14870055D02*
X6350777Y-14889103D01*
X6350777Y-14889103D02*
X6331729Y-14898627D01*
X6569825Y-14841484D02*
X6588872Y-14841484D01*
X6588872Y-14841484D02*
X6607920Y-14851008D01*
X6607920Y-14851008D02*
X6617444Y-14860531D01*
X6617444Y-14860531D02*
X6626968Y-14879579D01*
X6626968Y-14879579D02*
X6636491Y-14917674D01*
X6636491Y-14917674D02*
X6636491Y-14965293D01*
X6636491Y-14965293D02*
X6626968Y-15003388D01*
X6626968Y-15003388D02*
X6617444Y-15022436D01*
X6617444Y-15022436D02*
X6607920Y-15031960D01*
X6607920Y-15031960D02*
X6588872Y-15041484D01*
X6588872Y-15041484D02*
X6569825Y-15041484D01*
X6569825Y-15041484D02*
X6550777Y-15031960D01*
X6550777Y-15031960D02*
X6541253Y-15022436D01*
X6541253Y-15022436D02*
X6531729Y-15003388D01*
X6531729Y-15003388D02*
X6522206Y-14965293D01*
X6522206Y-14965293D02*
X6522206Y-14917674D01*
X6522206Y-14917674D02*
X6531729Y-14879579D01*
X6531729Y-14879579D02*
X6541253Y-14860531D01*
X6541253Y-14860531D02*
X6550777Y-14851008D01*
X6550777Y-14851008D02*
X6569825Y-14841484D01*
X6874587Y-15041484D02*
X6874587Y-14841484D01*
X6960301Y-15041484D02*
X6960301Y-14936722D01*
X6960301Y-14936722D02*
X6950777Y-14917674D01*
X6950777Y-14917674D02*
X6931730Y-14908150D01*
X6931730Y-14908150D02*
X6903158Y-14908150D01*
X6903158Y-14908150D02*
X6884110Y-14917674D01*
X6884110Y-14917674D02*
X6874587Y-14927198D01*
X7084110Y-15041484D02*
X7065063Y-15031960D01*
X7065063Y-15031960D02*
X7055539Y-15022436D01*
X7055539Y-15022436D02*
X7046015Y-15003388D01*
X7046015Y-15003388D02*
X7046015Y-14946246D01*
X7046015Y-14946246D02*
X7055539Y-14927198D01*
X7055539Y-14927198D02*
X7065063Y-14917674D01*
X7065063Y-14917674D02*
X7084110Y-14908150D01*
X7084110Y-14908150D02*
X7112682Y-14908150D01*
X7112682Y-14908150D02*
X7131730Y-14917674D01*
X7131730Y-14917674D02*
X7141253Y-14927198D01*
X7141253Y-14927198D02*
X7150777Y-14946246D01*
X7150777Y-14946246D02*
X7150777Y-15003388D01*
X7150777Y-15003388D02*
X7141253Y-15022436D01*
X7141253Y-15022436D02*
X7131730Y-15031960D01*
X7131730Y-15031960D02*
X7112682Y-15041484D01*
X7112682Y-15041484D02*
X7084110Y-15041484D01*
X7265063Y-15041484D02*
X7246015Y-15031960D01*
X7246015Y-15031960D02*
X7236491Y-15012912D01*
X7236491Y-15012912D02*
X7236491Y-14841484D01*
X7417444Y-15031960D02*
X7398396Y-15041484D01*
X7398396Y-15041484D02*
X7360301Y-15041484D01*
X7360301Y-15041484D02*
X7341253Y-15031960D01*
X7341253Y-15031960D02*
X7331730Y-15012912D01*
X7331730Y-15012912D02*
X7331730Y-14936722D01*
X7331730Y-14936722D02*
X7341253Y-14917674D01*
X7341253Y-14917674D02*
X7360301Y-14908150D01*
X7360301Y-14908150D02*
X7398396Y-14908150D01*
X7398396Y-14908150D02*
X7417444Y-14917674D01*
X7417444Y-14917674D02*
X7426968Y-14936722D01*
X7426968Y-14936722D02*
X7426968Y-14955769D01*
X7426968Y-14955769D02*
X7331730Y-14974817D01*
X7503158Y-15031960D02*
X7522206Y-15041484D01*
X7522206Y-15041484D02*
X7560301Y-15041484D01*
X7560301Y-15041484D02*
X7579349Y-15031960D01*
X7579349Y-15031960D02*
X7588872Y-15012912D01*
X7588872Y-15012912D02*
X7588872Y-15003388D01*
X7588872Y-15003388D02*
X7579349Y-14984341D01*
X7579349Y-14984341D02*
X7560301Y-14974817D01*
X7560301Y-14974817D02*
X7531730Y-14974817D01*
X7531730Y-14974817D02*
X7512682Y-14965293D01*
X7512682Y-14965293D02*
X7503158Y-14946246D01*
X7503158Y-14946246D02*
X7503158Y-14936722D01*
X7503158Y-14936722D02*
X7512682Y-14917674D01*
X7512682Y-14917674D02*
X7531730Y-14908150D01*
X7531730Y-14908150D02*
X7560301Y-14908150D01*
X7560301Y-14908150D02*
X7579349Y-14917674D01*
X7655539Y-15117674D02*
X7665063Y-15108150D01*
X7665063Y-15108150D02*
X7684111Y-15079579D01*
X7684111Y-15079579D02*
X7693634Y-15060531D01*
X7693634Y-15060531D02*
X7703158Y-15031960D01*
X7703158Y-15031960D02*
X7712682Y-14984341D01*
X7712682Y-14984341D02*
X7712682Y-14946246D01*
X7712682Y-14946246D02*
X7703158Y-14898627D01*
X7703158Y-14898627D02*
X7693634Y-14870055D01*
X7693634Y-14870055D02*
X7684111Y-14851008D01*
X7684111Y-14851008D02*
X7665063Y-14822436D01*
X7665063Y-14822436D02*
X7655539Y-14812912D01*
X8017444Y-15117674D02*
X8007920Y-15108150D01*
X8007920Y-15108150D02*
X7988872Y-15079579D01*
X7988872Y-15079579D02*
X7979349Y-15060531D01*
X7979349Y-15060531D02*
X7969825Y-15031960D01*
X7969825Y-15031960D02*
X7960301Y-14984341D01*
X7960301Y-14984341D02*
X7960301Y-14946246D01*
X7960301Y-14946246D02*
X7969825Y-14898627D01*
X7969825Y-14898627D02*
X7979349Y-14870055D01*
X7979349Y-14870055D02*
X7988872Y-14851008D01*
X7988872Y-14851008D02*
X8007920Y-14822436D01*
X8007920Y-14822436D02*
X8017444Y-14812912D01*
X8093634Y-14908150D02*
X8093634Y-15041484D01*
X8093634Y-14927198D02*
X8103158Y-14917674D01*
X8103158Y-14917674D02*
X8122206Y-14908150D01*
X8122206Y-14908150D02*
X8150777Y-14908150D01*
X8150777Y-14908150D02*
X8169825Y-14917674D01*
X8169825Y-14917674D02*
X8179349Y-14936722D01*
X8179349Y-14936722D02*
X8179349Y-15041484D01*
X8303158Y-15041484D02*
X8284111Y-15031960D01*
X8284111Y-15031960D02*
X8274587Y-15022436D01*
X8274587Y-15022436D02*
X8265063Y-15003388D01*
X8265063Y-15003388D02*
X8265063Y-14946246D01*
X8265063Y-14946246D02*
X8274587Y-14927198D01*
X8274587Y-14927198D02*
X8284111Y-14917674D01*
X8284111Y-14917674D02*
X8303158Y-14908150D01*
X8303158Y-14908150D02*
X8331730Y-14908150D01*
X8331730Y-14908150D02*
X8350777Y-14917674D01*
X8350777Y-14917674D02*
X8360301Y-14927198D01*
X8360301Y-14927198D02*
X8369825Y-14946246D01*
X8369825Y-14946246D02*
X8369825Y-15003388D01*
X8369825Y-15003388D02*
X8360301Y-15022436D01*
X8360301Y-15022436D02*
X8350777Y-15031960D01*
X8350777Y-15031960D02*
X8331730Y-15041484D01*
X8331730Y-15041484D02*
X8303158Y-15041484D01*
X8426968Y-14908150D02*
X8503158Y-14908150D01*
X8455539Y-14841484D02*
X8455539Y-15012912D01*
X8455539Y-15012912D02*
X8465063Y-15031960D01*
X8465063Y-15031960D02*
X8484111Y-15041484D01*
X8484111Y-15041484D02*
X8503158Y-15041484D01*
X8722206Y-14908150D02*
X8722206Y-15108150D01*
X8722206Y-14917674D02*
X8741254Y-14908150D01*
X8741254Y-14908150D02*
X8779349Y-14908150D01*
X8779349Y-14908150D02*
X8798396Y-14917674D01*
X8798396Y-14917674D02*
X8807920Y-14927198D01*
X8807920Y-14927198D02*
X8817444Y-14946246D01*
X8817444Y-14946246D02*
X8817444Y-15003388D01*
X8817444Y-15003388D02*
X8807920Y-15022436D01*
X8807920Y-15022436D02*
X8798396Y-15031960D01*
X8798396Y-15031960D02*
X8779349Y-15041484D01*
X8779349Y-15041484D02*
X8741254Y-15041484D01*
X8741254Y-15041484D02*
X8722206Y-15031960D01*
X8931730Y-15041484D02*
X8912682Y-15031960D01*
X8912682Y-15031960D02*
X8903158Y-15012912D01*
X8903158Y-15012912D02*
X8903158Y-14841484D01*
X9093635Y-15041484D02*
X9093635Y-14936722D01*
X9093635Y-14936722D02*
X9084111Y-14917674D01*
X9084111Y-14917674D02*
X9065063Y-14908150D01*
X9065063Y-14908150D02*
X9026968Y-14908150D01*
X9026968Y-14908150D02*
X9007920Y-14917674D01*
X9093635Y-15031960D02*
X9074587Y-15041484D01*
X9074587Y-15041484D02*
X9026968Y-15041484D01*
X9026968Y-15041484D02*
X9007920Y-15031960D01*
X9007920Y-15031960D02*
X8998396Y-15012912D01*
X8998396Y-15012912D02*
X8998396Y-14993865D01*
X8998396Y-14993865D02*
X9007920Y-14974817D01*
X9007920Y-14974817D02*
X9026968Y-14965293D01*
X9026968Y-14965293D02*
X9074587Y-14965293D01*
X9074587Y-14965293D02*
X9093635Y-14955769D01*
X9160301Y-14908150D02*
X9236492Y-14908150D01*
X9188873Y-14841484D02*
X9188873Y-15012912D01*
X9188873Y-15012912D02*
X9198396Y-15031960D01*
X9198396Y-15031960D02*
X9217444Y-15041484D01*
X9217444Y-15041484D02*
X9236492Y-15041484D01*
X9379349Y-15031960D02*
X9360301Y-15041484D01*
X9360301Y-15041484D02*
X9322206Y-15041484D01*
X9322206Y-15041484D02*
X9303158Y-15031960D01*
X9303158Y-15031960D02*
X9293635Y-15012912D01*
X9293635Y-15012912D02*
X9293635Y-14936722D01*
X9293635Y-14936722D02*
X9303158Y-14917674D01*
X9303158Y-14917674D02*
X9322206Y-14908150D01*
X9322206Y-14908150D02*
X9360301Y-14908150D01*
X9360301Y-14908150D02*
X9379349Y-14917674D01*
X9379349Y-14917674D02*
X9388873Y-14936722D01*
X9388873Y-14936722D02*
X9388873Y-14955769D01*
X9388873Y-14955769D02*
X9293635Y-14974817D01*
X9560301Y-15041484D02*
X9560301Y-14841484D01*
X9560301Y-15031960D02*
X9541254Y-15041484D01*
X9541254Y-15041484D02*
X9503158Y-15041484D01*
X9503158Y-15041484D02*
X9484111Y-15031960D01*
X9484111Y-15031960D02*
X9474587Y-15022436D01*
X9474587Y-15022436D02*
X9465063Y-15003388D01*
X9465063Y-15003388D02*
X9465063Y-14946246D01*
X9465063Y-14946246D02*
X9474587Y-14927198D01*
X9474587Y-14927198D02*
X9484111Y-14917674D01*
X9484111Y-14917674D02*
X9503158Y-14908150D01*
X9503158Y-14908150D02*
X9541254Y-14908150D01*
X9541254Y-14908150D02*
X9560301Y-14917674D01*
X9636492Y-15117674D02*
X9646016Y-15108150D01*
X9646016Y-15108150D02*
X9665063Y-15079579D01*
X9665063Y-15079579D02*
X9674587Y-15060531D01*
X9674587Y-15060531D02*
X9684111Y-15031960D01*
X9684111Y-15031960D02*
X9693635Y-14984341D01*
X9693635Y-14984341D02*
X9693635Y-14946246D01*
X9693635Y-14946246D02*
X9684111Y-14898627D01*
X9684111Y-14898627D02*
X9674587Y-14870055D01*
X9674587Y-14870055D02*
X9665063Y-14851008D01*
X9665063Y-14851008D02*
X9646016Y-14822436D01*
X9646016Y-14822436D02*
X9636492Y-14812912D01*
D12*
X2690000Y-15214000D02*
G75*
G02*
X2520000Y-15214000I-85000J0D01*
G01*
X2520000Y-15214000D02*
G75*
G02*
X2690000Y-15214000I85000J0D01*
G01*
D10*
X3055539Y-15305484D02*
X2941253Y-15305484D01*
X2998396Y-15305484D02*
X2998396Y-15105484D01*
X2998396Y-15105484D02*
X2979348Y-15134055D01*
X2979348Y-15134055D02*
X2960301Y-15153103D01*
X2960301Y-15153103D02*
X2941253Y-15162627D01*
X3141253Y-15286436D02*
X3150777Y-15295960D01*
X3150777Y-15295960D02*
X3141253Y-15305484D01*
X3141253Y-15305484D02*
X3131729Y-15295960D01*
X3131729Y-15295960D02*
X3141253Y-15286436D01*
X3141253Y-15286436D02*
X3141253Y-15305484D01*
X3217443Y-15105484D02*
X3350777Y-15105484D01*
X3350777Y-15105484D02*
X3265062Y-15305484D01*
X3465062Y-15105484D02*
X3484110Y-15105484D01*
X3484110Y-15105484D02*
X3503158Y-15115008D01*
X3503158Y-15115008D02*
X3512682Y-15124531D01*
X3512682Y-15124531D02*
X3522205Y-15143579D01*
X3522205Y-15143579D02*
X3531729Y-15181674D01*
X3531729Y-15181674D02*
X3531729Y-15229293D01*
X3531729Y-15229293D02*
X3522205Y-15267388D01*
X3522205Y-15267388D02*
X3512682Y-15286436D01*
X3512682Y-15286436D02*
X3503158Y-15295960D01*
X3503158Y-15295960D02*
X3484110Y-15305484D01*
X3484110Y-15305484D02*
X3465062Y-15305484D01*
X3465062Y-15305484D02*
X3446015Y-15295960D01*
X3446015Y-15295960D02*
X3436491Y-15286436D01*
X3436491Y-15286436D02*
X3426967Y-15267388D01*
X3426967Y-15267388D02*
X3417443Y-15229293D01*
X3417443Y-15229293D02*
X3417443Y-15181674D01*
X3417443Y-15181674D02*
X3426967Y-15143579D01*
X3426967Y-15143579D02*
X3436491Y-15124531D01*
X3436491Y-15124531D02*
X3446015Y-15115008D01*
X3446015Y-15115008D02*
X3465062Y-15105484D01*
X3655539Y-15105484D02*
X3674586Y-15105484D01*
X3674586Y-15105484D02*
X3693634Y-15115008D01*
X3693634Y-15115008D02*
X3703158Y-15124531D01*
X3703158Y-15124531D02*
X3712682Y-15143579D01*
X3712682Y-15143579D02*
X3722205Y-15181674D01*
X3722205Y-15181674D02*
X3722205Y-15229293D01*
X3722205Y-15229293D02*
X3712682Y-15267388D01*
X3712682Y-15267388D02*
X3703158Y-15286436D01*
X3703158Y-15286436D02*
X3693634Y-15295960D01*
X3693634Y-15295960D02*
X3674586Y-15305484D01*
X3674586Y-15305484D02*
X3655539Y-15305484D01*
X3655539Y-15305484D02*
X3636491Y-15295960D01*
X3636491Y-15295960D02*
X3626967Y-15286436D01*
X3626967Y-15286436D02*
X3617443Y-15267388D01*
X3617443Y-15267388D02*
X3607920Y-15229293D01*
X3607920Y-15229293D02*
X3607920Y-15181674D01*
X3607920Y-15181674D02*
X3617443Y-15143579D01*
X3617443Y-15143579D02*
X3626967Y-15124531D01*
X3626967Y-15124531D02*
X3636491Y-15115008D01*
X3636491Y-15115008D02*
X3655539Y-15105484D01*
X3807920Y-15305484D02*
X3807920Y-15172150D01*
X3807920Y-15191198D02*
X3817443Y-15181674D01*
X3817443Y-15181674D02*
X3836491Y-15172150D01*
X3836491Y-15172150D02*
X3865063Y-15172150D01*
X3865063Y-15172150D02*
X3884110Y-15181674D01*
X3884110Y-15181674D02*
X3893634Y-15200722D01*
X3893634Y-15200722D02*
X3893634Y-15305484D01*
X3893634Y-15200722D02*
X3903158Y-15181674D01*
X3903158Y-15181674D02*
X3922205Y-15172150D01*
X3922205Y-15172150D02*
X3950777Y-15172150D01*
X3950777Y-15172150D02*
X3969824Y-15181674D01*
X3969824Y-15181674D02*
X3979348Y-15200722D01*
X3979348Y-15200722D02*
X3979348Y-15305484D01*
X4074586Y-15305484D02*
X4074586Y-15172150D01*
X4074586Y-15191198D02*
X4084110Y-15181674D01*
X4084110Y-15181674D02*
X4103158Y-15172150D01*
X4103158Y-15172150D02*
X4131729Y-15172150D01*
X4131729Y-15172150D02*
X4150777Y-15181674D01*
X4150777Y-15181674D02*
X4160301Y-15200722D01*
X4160301Y-15200722D02*
X4160301Y-15305484D01*
X4160301Y-15200722D02*
X4169824Y-15181674D01*
X4169824Y-15181674D02*
X4188872Y-15172150D01*
X4188872Y-15172150D02*
X4217444Y-15172150D01*
X4217444Y-15172150D02*
X4236491Y-15181674D01*
X4236491Y-15181674D02*
X4246015Y-15200722D01*
X4246015Y-15200722D02*
X4246015Y-15305484D01*
X4636491Y-15095960D02*
X4465063Y-15353103D01*
X4893634Y-15105484D02*
X4912682Y-15105484D01*
X4912682Y-15105484D02*
X4931729Y-15115008D01*
X4931729Y-15115008D02*
X4941253Y-15124531D01*
X4941253Y-15124531D02*
X4950777Y-15143579D01*
X4950777Y-15143579D02*
X4960301Y-15181674D01*
X4960301Y-15181674D02*
X4960301Y-15229293D01*
X4960301Y-15229293D02*
X4950777Y-15267388D01*
X4950777Y-15267388D02*
X4941253Y-15286436D01*
X4941253Y-15286436D02*
X4931729Y-15295960D01*
X4931729Y-15295960D02*
X4912682Y-15305484D01*
X4912682Y-15305484D02*
X4893634Y-15305484D01*
X4893634Y-15305484D02*
X4874587Y-15295960D01*
X4874587Y-15295960D02*
X4865063Y-15286436D01*
X4865063Y-15286436D02*
X4855539Y-15267388D01*
X4855539Y-15267388D02*
X4846015Y-15229293D01*
X4846015Y-15229293D02*
X4846015Y-15181674D01*
X4846015Y-15181674D02*
X4855539Y-15143579D01*
X4855539Y-15143579D02*
X4865063Y-15124531D01*
X4865063Y-15124531D02*
X4874587Y-15115008D01*
X4874587Y-15115008D02*
X4893634Y-15105484D01*
X5046015Y-15286436D02*
X5055539Y-15295960D01*
X5055539Y-15295960D02*
X5046015Y-15305484D01*
X5046015Y-15305484D02*
X5036491Y-15295960D01*
X5036491Y-15295960D02*
X5046015Y-15286436D01*
X5046015Y-15286436D02*
X5046015Y-15305484D01*
X5179348Y-15105484D02*
X5198396Y-15105484D01*
X5198396Y-15105484D02*
X5217444Y-15115008D01*
X5217444Y-15115008D02*
X5226968Y-15124531D01*
X5226968Y-15124531D02*
X5236491Y-15143579D01*
X5236491Y-15143579D02*
X5246015Y-15181674D01*
X5246015Y-15181674D02*
X5246015Y-15229293D01*
X5246015Y-15229293D02*
X5236491Y-15267388D01*
X5236491Y-15267388D02*
X5226968Y-15286436D01*
X5226968Y-15286436D02*
X5217444Y-15295960D01*
X5217444Y-15295960D02*
X5198396Y-15305484D01*
X5198396Y-15305484D02*
X5179348Y-15305484D01*
X5179348Y-15305484D02*
X5160301Y-15295960D01*
X5160301Y-15295960D02*
X5150777Y-15286436D01*
X5150777Y-15286436D02*
X5141253Y-15267388D01*
X5141253Y-15267388D02*
X5131729Y-15229293D01*
X5131729Y-15229293D02*
X5131729Y-15181674D01*
X5131729Y-15181674D02*
X5141253Y-15143579D01*
X5141253Y-15143579D02*
X5150777Y-15124531D01*
X5150777Y-15124531D02*
X5160301Y-15115008D01*
X5160301Y-15115008D02*
X5179348Y-15105484D01*
X5417444Y-15105484D02*
X5379348Y-15105484D01*
X5379348Y-15105484D02*
X5360301Y-15115008D01*
X5360301Y-15115008D02*
X5350777Y-15124531D01*
X5350777Y-15124531D02*
X5331729Y-15153103D01*
X5331729Y-15153103D02*
X5322206Y-15191198D01*
X5322206Y-15191198D02*
X5322206Y-15267388D01*
X5322206Y-15267388D02*
X5331729Y-15286436D01*
X5331729Y-15286436D02*
X5341253Y-15295960D01*
X5341253Y-15295960D02*
X5360301Y-15305484D01*
X5360301Y-15305484D02*
X5398396Y-15305484D01*
X5398396Y-15305484D02*
X5417444Y-15295960D01*
X5417444Y-15295960D02*
X5426968Y-15286436D01*
X5426968Y-15286436D02*
X5436491Y-15267388D01*
X5436491Y-15267388D02*
X5436491Y-15219769D01*
X5436491Y-15219769D02*
X5426968Y-15200722D01*
X5426968Y-15200722D02*
X5417444Y-15191198D01*
X5417444Y-15191198D02*
X5398396Y-15181674D01*
X5398396Y-15181674D02*
X5360301Y-15181674D01*
X5360301Y-15181674D02*
X5341253Y-15191198D01*
X5341253Y-15191198D02*
X5331729Y-15200722D01*
X5331729Y-15200722D02*
X5322206Y-15219769D01*
X5607920Y-15105484D02*
X5569825Y-15105484D01*
X5569825Y-15105484D02*
X5550777Y-15115008D01*
X5550777Y-15115008D02*
X5541253Y-15124531D01*
X5541253Y-15124531D02*
X5522206Y-15153103D01*
X5522206Y-15153103D02*
X5512682Y-15191198D01*
X5512682Y-15191198D02*
X5512682Y-15267388D01*
X5512682Y-15267388D02*
X5522206Y-15286436D01*
X5522206Y-15286436D02*
X5531729Y-15295960D01*
X5531729Y-15295960D02*
X5550777Y-15305484D01*
X5550777Y-15305484D02*
X5588872Y-15305484D01*
X5588872Y-15305484D02*
X5607920Y-15295960D01*
X5607920Y-15295960D02*
X5617444Y-15286436D01*
X5617444Y-15286436D02*
X5626967Y-15267388D01*
X5626967Y-15267388D02*
X5626967Y-15219769D01*
X5626967Y-15219769D02*
X5617444Y-15200722D01*
X5617444Y-15200722D02*
X5607920Y-15191198D01*
X5607920Y-15191198D02*
X5588872Y-15181674D01*
X5588872Y-15181674D02*
X5550777Y-15181674D01*
X5550777Y-15181674D02*
X5531729Y-15191198D01*
X5531729Y-15191198D02*
X5522206Y-15200722D01*
X5522206Y-15200722D02*
X5512682Y-15219769D01*
X5722206Y-15305484D02*
X5760301Y-15305484D01*
X5760301Y-15305484D02*
X5779348Y-15295960D01*
X5779348Y-15295960D02*
X5788872Y-15286436D01*
X5788872Y-15286436D02*
X5807920Y-15257865D01*
X5807920Y-15257865D02*
X5817444Y-15219769D01*
X5817444Y-15219769D02*
X5817444Y-15143579D01*
X5817444Y-15143579D02*
X5807920Y-15124531D01*
X5807920Y-15124531D02*
X5798396Y-15115008D01*
X5798396Y-15115008D02*
X5779348Y-15105484D01*
X5779348Y-15105484D02*
X5741253Y-15105484D01*
X5741253Y-15105484D02*
X5722206Y-15115008D01*
X5722206Y-15115008D02*
X5712682Y-15124531D01*
X5712682Y-15124531D02*
X5703158Y-15143579D01*
X5703158Y-15143579D02*
X5703158Y-15191198D01*
X5703158Y-15191198D02*
X5712682Y-15210246D01*
X5712682Y-15210246D02*
X5722206Y-15219769D01*
X5722206Y-15219769D02*
X5741253Y-15229293D01*
X5741253Y-15229293D02*
X5779348Y-15229293D01*
X5779348Y-15229293D02*
X5798396Y-15219769D01*
X5798396Y-15219769D02*
X5807920Y-15210246D01*
X5807920Y-15210246D02*
X5817444Y-15191198D01*
X5893634Y-15105484D02*
X5893634Y-15143579D01*
X5969825Y-15105484D02*
X5969825Y-15143579D01*
X6265063Y-15381674D02*
X6255539Y-15372150D01*
X6255539Y-15372150D02*
X6236491Y-15343579D01*
X6236491Y-15343579D02*
X6226968Y-15324531D01*
X6226968Y-15324531D02*
X6217444Y-15295960D01*
X6217444Y-15295960D02*
X6207920Y-15248341D01*
X6207920Y-15248341D02*
X6207920Y-15210246D01*
X6207920Y-15210246D02*
X6217444Y-15162627D01*
X6217444Y-15162627D02*
X6226968Y-15134055D01*
X6226968Y-15134055D02*
X6236491Y-15115008D01*
X6236491Y-15115008D02*
X6255539Y-15086436D01*
X6255539Y-15086436D02*
X6265063Y-15076912D01*
X6446015Y-15305484D02*
X6331729Y-15305484D01*
X6388872Y-15305484D02*
X6388872Y-15105484D01*
X6388872Y-15105484D02*
X6369825Y-15134055D01*
X6369825Y-15134055D02*
X6350777Y-15153103D01*
X6350777Y-15153103D02*
X6331729Y-15162627D01*
X6636491Y-15305484D02*
X6522206Y-15305484D01*
X6579348Y-15305484D02*
X6579348Y-15105484D01*
X6579348Y-15105484D02*
X6560301Y-15134055D01*
X6560301Y-15134055D02*
X6541253Y-15153103D01*
X6541253Y-15153103D02*
X6522206Y-15162627D01*
X6807920Y-15105484D02*
X6769825Y-15105484D01*
X6769825Y-15105484D02*
X6750777Y-15115008D01*
X6750777Y-15115008D02*
X6741253Y-15124531D01*
X6741253Y-15124531D02*
X6722206Y-15153103D01*
X6722206Y-15153103D02*
X6712682Y-15191198D01*
X6712682Y-15191198D02*
X6712682Y-15267388D01*
X6712682Y-15267388D02*
X6722206Y-15286436D01*
X6722206Y-15286436D02*
X6731729Y-15295960D01*
X6731729Y-15295960D02*
X6750777Y-15305484D01*
X6750777Y-15305484D02*
X6788872Y-15305484D01*
X6788872Y-15305484D02*
X6807920Y-15295960D01*
X6807920Y-15295960D02*
X6817444Y-15286436D01*
X6817444Y-15286436D02*
X6826968Y-15267388D01*
X6826968Y-15267388D02*
X6826968Y-15219769D01*
X6826968Y-15219769D02*
X6817444Y-15200722D01*
X6817444Y-15200722D02*
X6807920Y-15191198D01*
X6807920Y-15191198D02*
X6788872Y-15181674D01*
X6788872Y-15181674D02*
X6750777Y-15181674D01*
X6750777Y-15181674D02*
X6731729Y-15191198D01*
X6731729Y-15191198D02*
X6722206Y-15200722D01*
X6722206Y-15200722D02*
X6712682Y-15219769D01*
X7065063Y-15305484D02*
X7065063Y-15105484D01*
X7150777Y-15305484D02*
X7150777Y-15200722D01*
X7150777Y-15200722D02*
X7141253Y-15181674D01*
X7141253Y-15181674D02*
X7122206Y-15172150D01*
X7122206Y-15172150D02*
X7093634Y-15172150D01*
X7093634Y-15172150D02*
X7074587Y-15181674D01*
X7074587Y-15181674D02*
X7065063Y-15191198D01*
X7274587Y-15305484D02*
X7255539Y-15295960D01*
X7255539Y-15295960D02*
X7246015Y-15286436D01*
X7246015Y-15286436D02*
X7236491Y-15267388D01*
X7236491Y-15267388D02*
X7236491Y-15210246D01*
X7236491Y-15210246D02*
X7246015Y-15191198D01*
X7246015Y-15191198D02*
X7255539Y-15181674D01*
X7255539Y-15181674D02*
X7274587Y-15172150D01*
X7274587Y-15172150D02*
X7303158Y-15172150D01*
X7303158Y-15172150D02*
X7322206Y-15181674D01*
X7322206Y-15181674D02*
X7331730Y-15191198D01*
X7331730Y-15191198D02*
X7341253Y-15210246D01*
X7341253Y-15210246D02*
X7341253Y-15267388D01*
X7341253Y-15267388D02*
X7331730Y-15286436D01*
X7331730Y-15286436D02*
X7322206Y-15295960D01*
X7322206Y-15295960D02*
X7303158Y-15305484D01*
X7303158Y-15305484D02*
X7274587Y-15305484D01*
X7455539Y-15305484D02*
X7436491Y-15295960D01*
X7436491Y-15295960D02*
X7426968Y-15276912D01*
X7426968Y-15276912D02*
X7426968Y-15105484D01*
X7607920Y-15295960D02*
X7588872Y-15305484D01*
X7588872Y-15305484D02*
X7550777Y-15305484D01*
X7550777Y-15305484D02*
X7531730Y-15295960D01*
X7531730Y-15295960D02*
X7522206Y-15276912D01*
X7522206Y-15276912D02*
X7522206Y-15200722D01*
X7522206Y-15200722D02*
X7531730Y-15181674D01*
X7531730Y-15181674D02*
X7550777Y-15172150D01*
X7550777Y-15172150D02*
X7588872Y-15172150D01*
X7588872Y-15172150D02*
X7607920Y-15181674D01*
X7607920Y-15181674D02*
X7617444Y-15200722D01*
X7617444Y-15200722D02*
X7617444Y-15219769D01*
X7617444Y-15219769D02*
X7522206Y-15238817D01*
X7693634Y-15295960D02*
X7712682Y-15305484D01*
X7712682Y-15305484D02*
X7750777Y-15305484D01*
X7750777Y-15305484D02*
X7769825Y-15295960D01*
X7769825Y-15295960D02*
X7779349Y-15276912D01*
X7779349Y-15276912D02*
X7779349Y-15267388D01*
X7779349Y-15267388D02*
X7769825Y-15248341D01*
X7769825Y-15248341D02*
X7750777Y-15238817D01*
X7750777Y-15238817D02*
X7722206Y-15238817D01*
X7722206Y-15238817D02*
X7703158Y-15229293D01*
X7703158Y-15229293D02*
X7693634Y-15210246D01*
X7693634Y-15210246D02*
X7693634Y-15200722D01*
X7693634Y-15200722D02*
X7703158Y-15181674D01*
X7703158Y-15181674D02*
X7722206Y-15172150D01*
X7722206Y-15172150D02*
X7750777Y-15172150D01*
X7750777Y-15172150D02*
X7769825Y-15181674D01*
X7846015Y-15381674D02*
X7855539Y-15372150D01*
X7855539Y-15372150D02*
X7874587Y-15343579D01*
X7874587Y-15343579D02*
X7884111Y-15324531D01*
X7884111Y-15324531D02*
X7893634Y-15295960D01*
X7893634Y-15295960D02*
X7903158Y-15248341D01*
X7903158Y-15248341D02*
X7903158Y-15210246D01*
X7903158Y-15210246D02*
X7893634Y-15162627D01*
X7893634Y-15162627D02*
X7884111Y-15134055D01*
X7884111Y-15134055D02*
X7874587Y-15115008D01*
X7874587Y-15115008D02*
X7855539Y-15086436D01*
X7855539Y-15086436D02*
X7846015Y-15076912D01*
X8207920Y-15381674D02*
X8198396Y-15372150D01*
X8198396Y-15372150D02*
X8179349Y-15343579D01*
X8179349Y-15343579D02*
X8169825Y-15324531D01*
X8169825Y-15324531D02*
X8160301Y-15295960D01*
X8160301Y-15295960D02*
X8150777Y-15248341D01*
X8150777Y-15248341D02*
X8150777Y-15210246D01*
X8150777Y-15210246D02*
X8160301Y-15162627D01*
X8160301Y-15162627D02*
X8169825Y-15134055D01*
X8169825Y-15134055D02*
X8179349Y-15115008D01*
X8179349Y-15115008D02*
X8198396Y-15086436D01*
X8198396Y-15086436D02*
X8207920Y-15076912D01*
X8284111Y-15172150D02*
X8284111Y-15305484D01*
X8284111Y-15191198D02*
X8293634Y-15181674D01*
X8293634Y-15181674D02*
X8312682Y-15172150D01*
X8312682Y-15172150D02*
X8341253Y-15172150D01*
X8341253Y-15172150D02*
X8360301Y-15181674D01*
X8360301Y-15181674D02*
X8369825Y-15200722D01*
X8369825Y-15200722D02*
X8369825Y-15305484D01*
X8493634Y-15305484D02*
X8474587Y-15295960D01*
X8474587Y-15295960D02*
X8465063Y-15286436D01*
X8465063Y-15286436D02*
X8455539Y-15267388D01*
X8455539Y-15267388D02*
X8455539Y-15210246D01*
X8455539Y-15210246D02*
X8465063Y-15191198D01*
X8465063Y-15191198D02*
X8474587Y-15181674D01*
X8474587Y-15181674D02*
X8493634Y-15172150D01*
X8493634Y-15172150D02*
X8522206Y-15172150D01*
X8522206Y-15172150D02*
X8541254Y-15181674D01*
X8541254Y-15181674D02*
X8550777Y-15191198D01*
X8550777Y-15191198D02*
X8560301Y-15210246D01*
X8560301Y-15210246D02*
X8560301Y-15267388D01*
X8560301Y-15267388D02*
X8550777Y-15286436D01*
X8550777Y-15286436D02*
X8541254Y-15295960D01*
X8541254Y-15295960D02*
X8522206Y-15305484D01*
X8522206Y-15305484D02*
X8493634Y-15305484D01*
X8617444Y-15172150D02*
X8693634Y-15172150D01*
X8646015Y-15105484D02*
X8646015Y-15276912D01*
X8646015Y-15276912D02*
X8655539Y-15295960D01*
X8655539Y-15295960D02*
X8674587Y-15305484D01*
X8674587Y-15305484D02*
X8693634Y-15305484D01*
X8912682Y-15172150D02*
X8912682Y-15372150D01*
X8912682Y-15181674D02*
X8931730Y-15172150D01*
X8931730Y-15172150D02*
X8969825Y-15172150D01*
X8969825Y-15172150D02*
X8988873Y-15181674D01*
X8988873Y-15181674D02*
X8998396Y-15191198D01*
X8998396Y-15191198D02*
X9007920Y-15210246D01*
X9007920Y-15210246D02*
X9007920Y-15267388D01*
X9007920Y-15267388D02*
X8998396Y-15286436D01*
X8998396Y-15286436D02*
X8988873Y-15295960D01*
X8988873Y-15295960D02*
X8969825Y-15305484D01*
X8969825Y-15305484D02*
X8931730Y-15305484D01*
X8931730Y-15305484D02*
X8912682Y-15295960D01*
X9122206Y-15305484D02*
X9103158Y-15295960D01*
X9103158Y-15295960D02*
X9093635Y-15276912D01*
X9093635Y-15276912D02*
X9093635Y-15105484D01*
X9284111Y-15305484D02*
X9284111Y-15200722D01*
X9284111Y-15200722D02*
X9274587Y-15181674D01*
X9274587Y-15181674D02*
X9255539Y-15172150D01*
X9255539Y-15172150D02*
X9217444Y-15172150D01*
X9217444Y-15172150D02*
X9198396Y-15181674D01*
X9284111Y-15295960D02*
X9265063Y-15305484D01*
X9265063Y-15305484D02*
X9217444Y-15305484D01*
X9217444Y-15305484D02*
X9198396Y-15295960D01*
X9198396Y-15295960D02*
X9188873Y-15276912D01*
X9188873Y-15276912D02*
X9188873Y-15257865D01*
X9188873Y-15257865D02*
X9198396Y-15238817D01*
X9198396Y-15238817D02*
X9217444Y-15229293D01*
X9217444Y-15229293D02*
X9265063Y-15229293D01*
X9265063Y-15229293D02*
X9284111Y-15219769D01*
X9350777Y-15172150D02*
X9426968Y-15172150D01*
X9379349Y-15105484D02*
X9379349Y-15276912D01*
X9379349Y-15276912D02*
X9388873Y-15295960D01*
X9388873Y-15295960D02*
X9407920Y-15305484D01*
X9407920Y-15305484D02*
X9426968Y-15305484D01*
X9569825Y-15295960D02*
X9550777Y-15305484D01*
X9550777Y-15305484D02*
X9512682Y-15305484D01*
X9512682Y-15305484D02*
X9493635Y-15295960D01*
X9493635Y-15295960D02*
X9484111Y-15276912D01*
X9484111Y-15276912D02*
X9484111Y-15200722D01*
X9484111Y-15200722D02*
X9493635Y-15181674D01*
X9493635Y-15181674D02*
X9512682Y-15172150D01*
X9512682Y-15172150D02*
X9550777Y-15172150D01*
X9550777Y-15172150D02*
X9569825Y-15181674D01*
X9569825Y-15181674D02*
X9579349Y-15200722D01*
X9579349Y-15200722D02*
X9579349Y-15219769D01*
X9579349Y-15219769D02*
X9484111Y-15238817D01*
X9750777Y-15305484D02*
X9750777Y-15105484D01*
X9750777Y-15295960D02*
X9731730Y-15305484D01*
X9731730Y-15305484D02*
X9693635Y-15305484D01*
X9693635Y-15305484D02*
X9674587Y-15295960D01*
X9674587Y-15295960D02*
X9665063Y-15286436D01*
X9665063Y-15286436D02*
X9655539Y-15267388D01*
X9655539Y-15267388D02*
X9655539Y-15210246D01*
X9655539Y-15210246D02*
X9665063Y-15191198D01*
X9665063Y-15191198D02*
X9674587Y-15181674D01*
X9674587Y-15181674D02*
X9693635Y-15172150D01*
X9693635Y-15172150D02*
X9731730Y-15172150D01*
X9731730Y-15172150D02*
X9750777Y-15181674D01*
X9826968Y-15381674D02*
X9836492Y-15372150D01*
X9836492Y-15372150D02*
X9855539Y-15343579D01*
X9855539Y-15343579D02*
X9865063Y-15324531D01*
X9865063Y-15324531D02*
X9874587Y-15295960D01*
X9874587Y-15295960D02*
X9884111Y-15248341D01*
X9884111Y-15248341D02*
X9884111Y-15210246D01*
X9884111Y-15210246D02*
X9874587Y-15162627D01*
X9874587Y-15162627D02*
X9865063Y-15134055D01*
X9865063Y-15134055D02*
X9855539Y-15115008D01*
X9855539Y-15115008D02*
X9836492Y-15086436D01*
X9836492Y-15086436D02*
X9826968Y-15076912D01*
X2590000Y-15404000D02*
X2590000Y-15604000D01*
X2490000Y-15504000D02*
X2690000Y-15504000D01*
X2931729Y-15395484D02*
X3055539Y-15395484D01*
X3055539Y-15395484D02*
X2988872Y-15471674D01*
X2988872Y-15471674D02*
X3017443Y-15471674D01*
X3017443Y-15471674D02*
X3036491Y-15481198D01*
X3036491Y-15481198D02*
X3046015Y-15490722D01*
X3046015Y-15490722D02*
X3055539Y-15509769D01*
X3055539Y-15509769D02*
X3055539Y-15557388D01*
X3055539Y-15557388D02*
X3046015Y-15576436D01*
X3046015Y-15576436D02*
X3036491Y-15585960D01*
X3036491Y-15585960D02*
X3017443Y-15595484D01*
X3017443Y-15595484D02*
X2960301Y-15595484D01*
X2960301Y-15595484D02*
X2941253Y-15585960D01*
X2941253Y-15585960D02*
X2931729Y-15576436D01*
X3141253Y-15576436D02*
X3150777Y-15585960D01*
X3150777Y-15585960D02*
X3141253Y-15595484D01*
X3141253Y-15595484D02*
X3131729Y-15585960D01*
X3131729Y-15585960D02*
X3141253Y-15576436D01*
X3141253Y-15576436D02*
X3141253Y-15595484D01*
X3274586Y-15395484D02*
X3293634Y-15395484D01*
X3293634Y-15395484D02*
X3312682Y-15405008D01*
X3312682Y-15405008D02*
X3322205Y-15414531D01*
X3322205Y-15414531D02*
X3331729Y-15433579D01*
X3331729Y-15433579D02*
X3341253Y-15471674D01*
X3341253Y-15471674D02*
X3341253Y-15519293D01*
X3341253Y-15519293D02*
X3331729Y-15557388D01*
X3331729Y-15557388D02*
X3322205Y-15576436D01*
X3322205Y-15576436D02*
X3312682Y-15585960D01*
X3312682Y-15585960D02*
X3293634Y-15595484D01*
X3293634Y-15595484D02*
X3274586Y-15595484D01*
X3274586Y-15595484D02*
X3255539Y-15585960D01*
X3255539Y-15585960D02*
X3246015Y-15576436D01*
X3246015Y-15576436D02*
X3236491Y-15557388D01*
X3236491Y-15557388D02*
X3226967Y-15519293D01*
X3226967Y-15519293D02*
X3226967Y-15471674D01*
X3226967Y-15471674D02*
X3236491Y-15433579D01*
X3236491Y-15433579D02*
X3246015Y-15414531D01*
X3246015Y-15414531D02*
X3255539Y-15405008D01*
X3255539Y-15405008D02*
X3274586Y-15395484D01*
X3522205Y-15395484D02*
X3426967Y-15395484D01*
X3426967Y-15395484D02*
X3417443Y-15490722D01*
X3417443Y-15490722D02*
X3426967Y-15481198D01*
X3426967Y-15481198D02*
X3446015Y-15471674D01*
X3446015Y-15471674D02*
X3493634Y-15471674D01*
X3493634Y-15471674D02*
X3512682Y-15481198D01*
X3512682Y-15481198D02*
X3522205Y-15490722D01*
X3522205Y-15490722D02*
X3531729Y-15509769D01*
X3531729Y-15509769D02*
X3531729Y-15557388D01*
X3531729Y-15557388D02*
X3522205Y-15576436D01*
X3522205Y-15576436D02*
X3512682Y-15585960D01*
X3512682Y-15585960D02*
X3493634Y-15595484D01*
X3493634Y-15595484D02*
X3446015Y-15595484D01*
X3446015Y-15595484D02*
X3426967Y-15585960D01*
X3426967Y-15585960D02*
X3417443Y-15576436D01*
X3655539Y-15395484D02*
X3674586Y-15395484D01*
X3674586Y-15395484D02*
X3693634Y-15405008D01*
X3693634Y-15405008D02*
X3703158Y-15414531D01*
X3703158Y-15414531D02*
X3712682Y-15433579D01*
X3712682Y-15433579D02*
X3722205Y-15471674D01*
X3722205Y-15471674D02*
X3722205Y-15519293D01*
X3722205Y-15519293D02*
X3712682Y-15557388D01*
X3712682Y-15557388D02*
X3703158Y-15576436D01*
X3703158Y-15576436D02*
X3693634Y-15585960D01*
X3693634Y-15585960D02*
X3674586Y-15595484D01*
X3674586Y-15595484D02*
X3655539Y-15595484D01*
X3655539Y-15595484D02*
X3636491Y-15585960D01*
X3636491Y-15585960D02*
X3626967Y-15576436D01*
X3626967Y-15576436D02*
X3617443Y-15557388D01*
X3617443Y-15557388D02*
X3607920Y-15519293D01*
X3607920Y-15519293D02*
X3607920Y-15471674D01*
X3607920Y-15471674D02*
X3617443Y-15433579D01*
X3617443Y-15433579D02*
X3626967Y-15414531D01*
X3626967Y-15414531D02*
X3636491Y-15405008D01*
X3636491Y-15405008D02*
X3655539Y-15395484D01*
X3807920Y-15595484D02*
X3807920Y-15462150D01*
X3807920Y-15481198D02*
X3817443Y-15471674D01*
X3817443Y-15471674D02*
X3836491Y-15462150D01*
X3836491Y-15462150D02*
X3865063Y-15462150D01*
X3865063Y-15462150D02*
X3884110Y-15471674D01*
X3884110Y-15471674D02*
X3893634Y-15490722D01*
X3893634Y-15490722D02*
X3893634Y-15595484D01*
X3893634Y-15490722D02*
X3903158Y-15471674D01*
X3903158Y-15471674D02*
X3922205Y-15462150D01*
X3922205Y-15462150D02*
X3950777Y-15462150D01*
X3950777Y-15462150D02*
X3969824Y-15471674D01*
X3969824Y-15471674D02*
X3979348Y-15490722D01*
X3979348Y-15490722D02*
X3979348Y-15595484D01*
X4074586Y-15595484D02*
X4074586Y-15462150D01*
X4074586Y-15481198D02*
X4084110Y-15471674D01*
X4084110Y-15471674D02*
X4103158Y-15462150D01*
X4103158Y-15462150D02*
X4131729Y-15462150D01*
X4131729Y-15462150D02*
X4150777Y-15471674D01*
X4150777Y-15471674D02*
X4160301Y-15490722D01*
X4160301Y-15490722D02*
X4160301Y-15595484D01*
X4160301Y-15490722D02*
X4169824Y-15471674D01*
X4169824Y-15471674D02*
X4188872Y-15462150D01*
X4188872Y-15462150D02*
X4217444Y-15462150D01*
X4217444Y-15462150D02*
X4236491Y-15471674D01*
X4236491Y-15471674D02*
X4246015Y-15490722D01*
X4246015Y-15490722D02*
X4246015Y-15595484D01*
X4636491Y-15385960D02*
X4465063Y-15643103D01*
X4893634Y-15395484D02*
X4912682Y-15395484D01*
X4912682Y-15395484D02*
X4931729Y-15405008D01*
X4931729Y-15405008D02*
X4941253Y-15414531D01*
X4941253Y-15414531D02*
X4950777Y-15433579D01*
X4950777Y-15433579D02*
X4960301Y-15471674D01*
X4960301Y-15471674D02*
X4960301Y-15519293D01*
X4960301Y-15519293D02*
X4950777Y-15557388D01*
X4950777Y-15557388D02*
X4941253Y-15576436D01*
X4941253Y-15576436D02*
X4931729Y-15585960D01*
X4931729Y-15585960D02*
X4912682Y-15595484D01*
X4912682Y-15595484D02*
X4893634Y-15595484D01*
X4893634Y-15595484D02*
X4874587Y-15585960D01*
X4874587Y-15585960D02*
X4865063Y-15576436D01*
X4865063Y-15576436D02*
X4855539Y-15557388D01*
X4855539Y-15557388D02*
X4846015Y-15519293D01*
X4846015Y-15519293D02*
X4846015Y-15471674D01*
X4846015Y-15471674D02*
X4855539Y-15433579D01*
X4855539Y-15433579D02*
X4865063Y-15414531D01*
X4865063Y-15414531D02*
X4874587Y-15405008D01*
X4874587Y-15405008D02*
X4893634Y-15395484D01*
X5046015Y-15576436D02*
X5055539Y-15585960D01*
X5055539Y-15585960D02*
X5046015Y-15595484D01*
X5046015Y-15595484D02*
X5036491Y-15585960D01*
X5036491Y-15585960D02*
X5046015Y-15576436D01*
X5046015Y-15576436D02*
X5046015Y-15595484D01*
X5246015Y-15595484D02*
X5131729Y-15595484D01*
X5188872Y-15595484D02*
X5188872Y-15395484D01*
X5188872Y-15395484D02*
X5169825Y-15424055D01*
X5169825Y-15424055D02*
X5150777Y-15443103D01*
X5150777Y-15443103D02*
X5131729Y-15452627D01*
X5322206Y-15414531D02*
X5331729Y-15405008D01*
X5331729Y-15405008D02*
X5350777Y-15395484D01*
X5350777Y-15395484D02*
X5398396Y-15395484D01*
X5398396Y-15395484D02*
X5417444Y-15405008D01*
X5417444Y-15405008D02*
X5426968Y-15414531D01*
X5426968Y-15414531D02*
X5436491Y-15433579D01*
X5436491Y-15433579D02*
X5436491Y-15452627D01*
X5436491Y-15452627D02*
X5426968Y-15481198D01*
X5426968Y-15481198D02*
X5312682Y-15595484D01*
X5312682Y-15595484D02*
X5436491Y-15595484D01*
X5560301Y-15395484D02*
X5579349Y-15395484D01*
X5579349Y-15395484D02*
X5598396Y-15405008D01*
X5598396Y-15405008D02*
X5607920Y-15414531D01*
X5607920Y-15414531D02*
X5617444Y-15433579D01*
X5617444Y-15433579D02*
X5626967Y-15471674D01*
X5626967Y-15471674D02*
X5626967Y-15519293D01*
X5626967Y-15519293D02*
X5617444Y-15557388D01*
X5617444Y-15557388D02*
X5607920Y-15576436D01*
X5607920Y-15576436D02*
X5598396Y-15585960D01*
X5598396Y-15585960D02*
X5579349Y-15595484D01*
X5579349Y-15595484D02*
X5560301Y-15595484D01*
X5560301Y-15595484D02*
X5541253Y-15585960D01*
X5541253Y-15585960D02*
X5531729Y-15576436D01*
X5531729Y-15576436D02*
X5522206Y-15557388D01*
X5522206Y-15557388D02*
X5512682Y-15519293D01*
X5512682Y-15519293D02*
X5512682Y-15471674D01*
X5512682Y-15471674D02*
X5522206Y-15433579D01*
X5522206Y-15433579D02*
X5531729Y-15414531D01*
X5531729Y-15414531D02*
X5541253Y-15405008D01*
X5541253Y-15405008D02*
X5560301Y-15395484D01*
X5817444Y-15595484D02*
X5703158Y-15595484D01*
X5760301Y-15595484D02*
X5760301Y-15395484D01*
X5760301Y-15395484D02*
X5741253Y-15424055D01*
X5741253Y-15424055D02*
X5722206Y-15443103D01*
X5722206Y-15443103D02*
X5703158Y-15452627D01*
X5893634Y-15395484D02*
X5893634Y-15433579D01*
X5969825Y-15395484D02*
X5969825Y-15433579D01*
X6265063Y-15671674D02*
X6255539Y-15662150D01*
X6255539Y-15662150D02*
X6236491Y-15633579D01*
X6236491Y-15633579D02*
X6226968Y-15614531D01*
X6226968Y-15614531D02*
X6217444Y-15585960D01*
X6217444Y-15585960D02*
X6207920Y-15538341D01*
X6207920Y-15538341D02*
X6207920Y-15500246D01*
X6207920Y-15500246D02*
X6217444Y-15452627D01*
X6217444Y-15452627D02*
X6226968Y-15424055D01*
X6226968Y-15424055D02*
X6236491Y-15405008D01*
X6236491Y-15405008D02*
X6255539Y-15376436D01*
X6255539Y-15376436D02*
X6265063Y-15366912D01*
X6426968Y-15462150D02*
X6426968Y-15595484D01*
X6379348Y-15385960D02*
X6331729Y-15528817D01*
X6331729Y-15528817D02*
X6455539Y-15528817D01*
X6684110Y-15595484D02*
X6684110Y-15395484D01*
X6769825Y-15595484D02*
X6769825Y-15490722D01*
X6769825Y-15490722D02*
X6760301Y-15471674D01*
X6760301Y-15471674D02*
X6741253Y-15462150D01*
X6741253Y-15462150D02*
X6712682Y-15462150D01*
X6712682Y-15462150D02*
X6693634Y-15471674D01*
X6693634Y-15471674D02*
X6684110Y-15481198D01*
X6893634Y-15595484D02*
X6874587Y-15585960D01*
X6874587Y-15585960D02*
X6865063Y-15576436D01*
X6865063Y-15576436D02*
X6855539Y-15557388D01*
X6855539Y-15557388D02*
X6855539Y-15500246D01*
X6855539Y-15500246D02*
X6865063Y-15481198D01*
X6865063Y-15481198D02*
X6874587Y-15471674D01*
X6874587Y-15471674D02*
X6893634Y-15462150D01*
X6893634Y-15462150D02*
X6922206Y-15462150D01*
X6922206Y-15462150D02*
X6941253Y-15471674D01*
X6941253Y-15471674D02*
X6950777Y-15481198D01*
X6950777Y-15481198D02*
X6960301Y-15500246D01*
X6960301Y-15500246D02*
X6960301Y-15557388D01*
X6960301Y-15557388D02*
X6950777Y-15576436D01*
X6950777Y-15576436D02*
X6941253Y-15585960D01*
X6941253Y-15585960D02*
X6922206Y-15595484D01*
X6922206Y-15595484D02*
X6893634Y-15595484D01*
X7074587Y-15595484D02*
X7055539Y-15585960D01*
X7055539Y-15585960D02*
X7046015Y-15566912D01*
X7046015Y-15566912D02*
X7046015Y-15395484D01*
X7226968Y-15585960D02*
X7207920Y-15595484D01*
X7207920Y-15595484D02*
X7169825Y-15595484D01*
X7169825Y-15595484D02*
X7150777Y-15585960D01*
X7150777Y-15585960D02*
X7141253Y-15566912D01*
X7141253Y-15566912D02*
X7141253Y-15490722D01*
X7141253Y-15490722D02*
X7150777Y-15471674D01*
X7150777Y-15471674D02*
X7169825Y-15462150D01*
X7169825Y-15462150D02*
X7207920Y-15462150D01*
X7207920Y-15462150D02*
X7226968Y-15471674D01*
X7226968Y-15471674D02*
X7236491Y-15490722D01*
X7236491Y-15490722D02*
X7236491Y-15509769D01*
X7236491Y-15509769D02*
X7141253Y-15528817D01*
X7312682Y-15585960D02*
X7331730Y-15595484D01*
X7331730Y-15595484D02*
X7369825Y-15595484D01*
X7369825Y-15595484D02*
X7388872Y-15585960D01*
X7388872Y-15585960D02*
X7398396Y-15566912D01*
X7398396Y-15566912D02*
X7398396Y-15557388D01*
X7398396Y-15557388D02*
X7388872Y-15538341D01*
X7388872Y-15538341D02*
X7369825Y-15528817D01*
X7369825Y-15528817D02*
X7341253Y-15528817D01*
X7341253Y-15528817D02*
X7322206Y-15519293D01*
X7322206Y-15519293D02*
X7312682Y-15500246D01*
X7312682Y-15500246D02*
X7312682Y-15490722D01*
X7312682Y-15490722D02*
X7322206Y-15471674D01*
X7322206Y-15471674D02*
X7341253Y-15462150D01*
X7341253Y-15462150D02*
X7369825Y-15462150D01*
X7369825Y-15462150D02*
X7388872Y-15471674D01*
X7465063Y-15671674D02*
X7474587Y-15662150D01*
X7474587Y-15662150D02*
X7493634Y-15633579D01*
X7493634Y-15633579D02*
X7503158Y-15614531D01*
X7503158Y-15614531D02*
X7512682Y-15585960D01*
X7512682Y-15585960D02*
X7522206Y-15538341D01*
X7522206Y-15538341D02*
X7522206Y-15500246D01*
X7522206Y-15500246D02*
X7512682Y-15452627D01*
X7512682Y-15452627D02*
X7503158Y-15424055D01*
X7503158Y-15424055D02*
X7493634Y-15405008D01*
X7493634Y-15405008D02*
X7474587Y-15376436D01*
X7474587Y-15376436D02*
X7465063Y-15366912D01*
X7826968Y-15671674D02*
X7817444Y-15662150D01*
X7817444Y-15662150D02*
X7798396Y-15633579D01*
X7798396Y-15633579D02*
X7788872Y-15614531D01*
X7788872Y-15614531D02*
X7779349Y-15585960D01*
X7779349Y-15585960D02*
X7769825Y-15538341D01*
X7769825Y-15538341D02*
X7769825Y-15500246D01*
X7769825Y-15500246D02*
X7779349Y-15452627D01*
X7779349Y-15452627D02*
X7788872Y-15424055D01*
X7788872Y-15424055D02*
X7798396Y-15405008D01*
X7798396Y-15405008D02*
X7817444Y-15376436D01*
X7817444Y-15376436D02*
X7826968Y-15366912D01*
X7903158Y-15462150D02*
X7903158Y-15595484D01*
X7903158Y-15481198D02*
X7912682Y-15471674D01*
X7912682Y-15471674D02*
X7931730Y-15462150D01*
X7931730Y-15462150D02*
X7960301Y-15462150D01*
X7960301Y-15462150D02*
X7979349Y-15471674D01*
X7979349Y-15471674D02*
X7988872Y-15490722D01*
X7988872Y-15490722D02*
X7988872Y-15595484D01*
X8112682Y-15595484D02*
X8093634Y-15585960D01*
X8093634Y-15585960D02*
X8084111Y-15576436D01*
X8084111Y-15576436D02*
X8074587Y-15557388D01*
X8074587Y-15557388D02*
X8074587Y-15500246D01*
X8074587Y-15500246D02*
X8084111Y-15481198D01*
X8084111Y-15481198D02*
X8093634Y-15471674D01*
X8093634Y-15471674D02*
X8112682Y-15462150D01*
X8112682Y-15462150D02*
X8141253Y-15462150D01*
X8141253Y-15462150D02*
X8160301Y-15471674D01*
X8160301Y-15471674D02*
X8169825Y-15481198D01*
X8169825Y-15481198D02*
X8179349Y-15500246D01*
X8179349Y-15500246D02*
X8179349Y-15557388D01*
X8179349Y-15557388D02*
X8169825Y-15576436D01*
X8169825Y-15576436D02*
X8160301Y-15585960D01*
X8160301Y-15585960D02*
X8141253Y-15595484D01*
X8141253Y-15595484D02*
X8112682Y-15595484D01*
X8236492Y-15462150D02*
X8312682Y-15462150D01*
X8265063Y-15395484D02*
X8265063Y-15566912D01*
X8265063Y-15566912D02*
X8274587Y-15585960D01*
X8274587Y-15585960D02*
X8293634Y-15595484D01*
X8293634Y-15595484D02*
X8312682Y-15595484D01*
X8531730Y-15462150D02*
X8531730Y-15662150D01*
X8531730Y-15471674D02*
X8550777Y-15462150D01*
X8550777Y-15462150D02*
X8588873Y-15462150D01*
X8588873Y-15462150D02*
X8607920Y-15471674D01*
X8607920Y-15471674D02*
X8617444Y-15481198D01*
X8617444Y-15481198D02*
X8626968Y-15500246D01*
X8626968Y-15500246D02*
X8626968Y-15557388D01*
X8626968Y-15557388D02*
X8617444Y-15576436D01*
X8617444Y-15576436D02*
X8607920Y-15585960D01*
X8607920Y-15585960D02*
X8588873Y-15595484D01*
X8588873Y-15595484D02*
X8550777Y-15595484D01*
X8550777Y-15595484D02*
X8531730Y-15585960D01*
X8741254Y-15595484D02*
X8722206Y-15585960D01*
X8722206Y-15585960D02*
X8712682Y-15566912D01*
X8712682Y-15566912D02*
X8712682Y-15395484D01*
X8903158Y-15595484D02*
X8903158Y-15490722D01*
X8903158Y-15490722D02*
X8893635Y-15471674D01*
X8893635Y-15471674D02*
X8874587Y-15462150D01*
X8874587Y-15462150D02*
X8836492Y-15462150D01*
X8836492Y-15462150D02*
X8817444Y-15471674D01*
X8903158Y-15585960D02*
X8884111Y-15595484D01*
X8884111Y-15595484D02*
X8836492Y-15595484D01*
X8836492Y-15595484D02*
X8817444Y-15585960D01*
X8817444Y-15585960D02*
X8807920Y-15566912D01*
X8807920Y-15566912D02*
X8807920Y-15547865D01*
X8807920Y-15547865D02*
X8817444Y-15528817D01*
X8817444Y-15528817D02*
X8836492Y-15519293D01*
X8836492Y-15519293D02*
X8884111Y-15519293D01*
X8884111Y-15519293D02*
X8903158Y-15509769D01*
X8969825Y-15462150D02*
X9046015Y-15462150D01*
X8998396Y-15395484D02*
X8998396Y-15566912D01*
X8998396Y-15566912D02*
X9007920Y-15585960D01*
X9007920Y-15585960D02*
X9026968Y-15595484D01*
X9026968Y-15595484D02*
X9046015Y-15595484D01*
X9188873Y-15585960D02*
X9169825Y-15595484D01*
X9169825Y-15595484D02*
X9131730Y-15595484D01*
X9131730Y-15595484D02*
X9112682Y-15585960D01*
X9112682Y-15585960D02*
X9103158Y-15566912D01*
X9103158Y-15566912D02*
X9103158Y-15490722D01*
X9103158Y-15490722D02*
X9112682Y-15471674D01*
X9112682Y-15471674D02*
X9131730Y-15462150D01*
X9131730Y-15462150D02*
X9169825Y-15462150D01*
X9169825Y-15462150D02*
X9188873Y-15471674D01*
X9188873Y-15471674D02*
X9198396Y-15490722D01*
X9198396Y-15490722D02*
X9198396Y-15509769D01*
X9198396Y-15509769D02*
X9103158Y-15528817D01*
X9369825Y-15595484D02*
X9369825Y-15395484D01*
X9369825Y-15585960D02*
X9350777Y-15595484D01*
X9350777Y-15595484D02*
X9312682Y-15595484D01*
X9312682Y-15595484D02*
X9293635Y-15585960D01*
X9293635Y-15585960D02*
X9284111Y-15576436D01*
X9284111Y-15576436D02*
X9274587Y-15557388D01*
X9274587Y-15557388D02*
X9274587Y-15500246D01*
X9274587Y-15500246D02*
X9284111Y-15481198D01*
X9284111Y-15481198D02*
X9293635Y-15471674D01*
X9293635Y-15471674D02*
X9312682Y-15462150D01*
X9312682Y-15462150D02*
X9350777Y-15462150D01*
X9350777Y-15462150D02*
X9369825Y-15471674D01*
X9446016Y-15671674D02*
X9455539Y-15662150D01*
X9455539Y-15662150D02*
X9474587Y-15633579D01*
X9474587Y-15633579D02*
X9484111Y-15614531D01*
X9484111Y-15614531D02*
X9493635Y-15585960D01*
X9493635Y-15585960D02*
X9503158Y-15538341D01*
X9503158Y-15538341D02*
X9503158Y-15500246D01*
X9503158Y-15500246D02*
X9493635Y-15452627D01*
X9493635Y-15452627D02*
X9484111Y-15424055D01*
X9484111Y-15424055D02*
X9474587Y-15405008D01*
X9474587Y-15405008D02*
X9455539Y-15376436D01*
X9455539Y-15376436D02*
X9446016Y-15366912D01*
X2660711Y-15894711D02*
X2660711Y-15753289D01*
X2519289Y-15753289D01*
X2519289Y-15894711D01*
X2660711Y-15894711D01*
X3036491Y-15782150D02*
X3036491Y-15915484D01*
X2988872Y-15705960D02*
X2941253Y-15848817D01*
X2941253Y-15848817D02*
X3065062Y-15848817D01*
X3141253Y-15896436D02*
X3150777Y-15905960D01*
X3150777Y-15905960D02*
X3141253Y-15915484D01*
X3141253Y-15915484D02*
X3131729Y-15905960D01*
X3131729Y-15905960D02*
X3141253Y-15896436D01*
X3141253Y-15896436D02*
X3141253Y-15915484D01*
X3274586Y-15715484D02*
X3293634Y-15715484D01*
X3293634Y-15715484D02*
X3312682Y-15725008D01*
X3312682Y-15725008D02*
X3322205Y-15734531D01*
X3322205Y-15734531D02*
X3331729Y-15753579D01*
X3331729Y-15753579D02*
X3341253Y-15791674D01*
X3341253Y-15791674D02*
X3341253Y-15839293D01*
X3341253Y-15839293D02*
X3331729Y-15877388D01*
X3331729Y-15877388D02*
X3322205Y-15896436D01*
X3322205Y-15896436D02*
X3312682Y-15905960D01*
X3312682Y-15905960D02*
X3293634Y-15915484D01*
X3293634Y-15915484D02*
X3274586Y-15915484D01*
X3274586Y-15915484D02*
X3255539Y-15905960D01*
X3255539Y-15905960D02*
X3246015Y-15896436D01*
X3246015Y-15896436D02*
X3236491Y-15877388D01*
X3236491Y-15877388D02*
X3226967Y-15839293D01*
X3226967Y-15839293D02*
X3226967Y-15791674D01*
X3226967Y-15791674D02*
X3236491Y-15753579D01*
X3236491Y-15753579D02*
X3246015Y-15734531D01*
X3246015Y-15734531D02*
X3255539Y-15725008D01*
X3255539Y-15725008D02*
X3274586Y-15715484D01*
X3465062Y-15715484D02*
X3484110Y-15715484D01*
X3484110Y-15715484D02*
X3503158Y-15725008D01*
X3503158Y-15725008D02*
X3512682Y-15734531D01*
X3512682Y-15734531D02*
X3522205Y-15753579D01*
X3522205Y-15753579D02*
X3531729Y-15791674D01*
X3531729Y-15791674D02*
X3531729Y-15839293D01*
X3531729Y-15839293D02*
X3522205Y-15877388D01*
X3522205Y-15877388D02*
X3512682Y-15896436D01*
X3512682Y-15896436D02*
X3503158Y-15905960D01*
X3503158Y-15905960D02*
X3484110Y-15915484D01*
X3484110Y-15915484D02*
X3465062Y-15915484D01*
X3465062Y-15915484D02*
X3446015Y-15905960D01*
X3446015Y-15905960D02*
X3436491Y-15896436D01*
X3436491Y-15896436D02*
X3426967Y-15877388D01*
X3426967Y-15877388D02*
X3417443Y-15839293D01*
X3417443Y-15839293D02*
X3417443Y-15791674D01*
X3417443Y-15791674D02*
X3426967Y-15753579D01*
X3426967Y-15753579D02*
X3436491Y-15734531D01*
X3436491Y-15734531D02*
X3446015Y-15725008D01*
X3446015Y-15725008D02*
X3465062Y-15715484D01*
X3655539Y-15715484D02*
X3674586Y-15715484D01*
X3674586Y-15715484D02*
X3693634Y-15725008D01*
X3693634Y-15725008D02*
X3703158Y-15734531D01*
X3703158Y-15734531D02*
X3712682Y-15753579D01*
X3712682Y-15753579D02*
X3722205Y-15791674D01*
X3722205Y-15791674D02*
X3722205Y-15839293D01*
X3722205Y-15839293D02*
X3712682Y-15877388D01*
X3712682Y-15877388D02*
X3703158Y-15896436D01*
X3703158Y-15896436D02*
X3693634Y-15905960D01*
X3693634Y-15905960D02*
X3674586Y-15915484D01*
X3674586Y-15915484D02*
X3655539Y-15915484D01*
X3655539Y-15915484D02*
X3636491Y-15905960D01*
X3636491Y-15905960D02*
X3626967Y-15896436D01*
X3626967Y-15896436D02*
X3617443Y-15877388D01*
X3617443Y-15877388D02*
X3607920Y-15839293D01*
X3607920Y-15839293D02*
X3607920Y-15791674D01*
X3607920Y-15791674D02*
X3617443Y-15753579D01*
X3617443Y-15753579D02*
X3626967Y-15734531D01*
X3626967Y-15734531D02*
X3636491Y-15725008D01*
X3636491Y-15725008D02*
X3655539Y-15715484D01*
X3807920Y-15915484D02*
X3807920Y-15782150D01*
X3807920Y-15801198D02*
X3817443Y-15791674D01*
X3817443Y-15791674D02*
X3836491Y-15782150D01*
X3836491Y-15782150D02*
X3865063Y-15782150D01*
X3865063Y-15782150D02*
X3884110Y-15791674D01*
X3884110Y-15791674D02*
X3893634Y-15810722D01*
X3893634Y-15810722D02*
X3893634Y-15915484D01*
X3893634Y-15810722D02*
X3903158Y-15791674D01*
X3903158Y-15791674D02*
X3922205Y-15782150D01*
X3922205Y-15782150D02*
X3950777Y-15782150D01*
X3950777Y-15782150D02*
X3969824Y-15791674D01*
X3969824Y-15791674D02*
X3979348Y-15810722D01*
X3979348Y-15810722D02*
X3979348Y-15915484D01*
X4074586Y-15915484D02*
X4074586Y-15782150D01*
X4074586Y-15801198D02*
X4084110Y-15791674D01*
X4084110Y-15791674D02*
X4103158Y-15782150D01*
X4103158Y-15782150D02*
X4131729Y-15782150D01*
X4131729Y-15782150D02*
X4150777Y-15791674D01*
X4150777Y-15791674D02*
X4160301Y-15810722D01*
X4160301Y-15810722D02*
X4160301Y-15915484D01*
X4160301Y-15810722D02*
X4169824Y-15791674D01*
X4169824Y-15791674D02*
X4188872Y-15782150D01*
X4188872Y-15782150D02*
X4217444Y-15782150D01*
X4217444Y-15782150D02*
X4236491Y-15791674D01*
X4236491Y-15791674D02*
X4246015Y-15810722D01*
X4246015Y-15810722D02*
X4246015Y-15915484D01*
X4636491Y-15705960D02*
X4465063Y-15963103D01*
X4893634Y-15715484D02*
X4912682Y-15715484D01*
X4912682Y-15715484D02*
X4931729Y-15725008D01*
X4931729Y-15725008D02*
X4941253Y-15734531D01*
X4941253Y-15734531D02*
X4950777Y-15753579D01*
X4950777Y-15753579D02*
X4960301Y-15791674D01*
X4960301Y-15791674D02*
X4960301Y-15839293D01*
X4960301Y-15839293D02*
X4950777Y-15877388D01*
X4950777Y-15877388D02*
X4941253Y-15896436D01*
X4941253Y-15896436D02*
X4931729Y-15905960D01*
X4931729Y-15905960D02*
X4912682Y-15915484D01*
X4912682Y-15915484D02*
X4893634Y-15915484D01*
X4893634Y-15915484D02*
X4874587Y-15905960D01*
X4874587Y-15905960D02*
X4865063Y-15896436D01*
X4865063Y-15896436D02*
X4855539Y-15877388D01*
X4855539Y-15877388D02*
X4846015Y-15839293D01*
X4846015Y-15839293D02*
X4846015Y-15791674D01*
X4846015Y-15791674D02*
X4855539Y-15753579D01*
X4855539Y-15753579D02*
X4865063Y-15734531D01*
X4865063Y-15734531D02*
X4874587Y-15725008D01*
X4874587Y-15725008D02*
X4893634Y-15715484D01*
X5046015Y-15896436D02*
X5055539Y-15905960D01*
X5055539Y-15905960D02*
X5046015Y-15915484D01*
X5046015Y-15915484D02*
X5036491Y-15905960D01*
X5036491Y-15905960D02*
X5046015Y-15896436D01*
X5046015Y-15896436D02*
X5046015Y-15915484D01*
X5246015Y-15915484D02*
X5131729Y-15915484D01*
X5188872Y-15915484D02*
X5188872Y-15715484D01*
X5188872Y-15715484D02*
X5169825Y-15744055D01*
X5169825Y-15744055D02*
X5150777Y-15763103D01*
X5150777Y-15763103D02*
X5131729Y-15772627D01*
X5426968Y-15715484D02*
X5331729Y-15715484D01*
X5331729Y-15715484D02*
X5322206Y-15810722D01*
X5322206Y-15810722D02*
X5331729Y-15801198D01*
X5331729Y-15801198D02*
X5350777Y-15791674D01*
X5350777Y-15791674D02*
X5398396Y-15791674D01*
X5398396Y-15791674D02*
X5417444Y-15801198D01*
X5417444Y-15801198D02*
X5426968Y-15810722D01*
X5426968Y-15810722D02*
X5436491Y-15829769D01*
X5436491Y-15829769D02*
X5436491Y-15877388D01*
X5436491Y-15877388D02*
X5426968Y-15896436D01*
X5426968Y-15896436D02*
X5417444Y-15905960D01*
X5417444Y-15905960D02*
X5398396Y-15915484D01*
X5398396Y-15915484D02*
X5350777Y-15915484D01*
X5350777Y-15915484D02*
X5331729Y-15905960D01*
X5331729Y-15905960D02*
X5322206Y-15896436D01*
X5503158Y-15715484D02*
X5636491Y-15715484D01*
X5636491Y-15715484D02*
X5550777Y-15915484D01*
X5807920Y-15715484D02*
X5712682Y-15715484D01*
X5712682Y-15715484D02*
X5703158Y-15810722D01*
X5703158Y-15810722D02*
X5712682Y-15801198D01*
X5712682Y-15801198D02*
X5731729Y-15791674D01*
X5731729Y-15791674D02*
X5779348Y-15791674D01*
X5779348Y-15791674D02*
X5798396Y-15801198D01*
X5798396Y-15801198D02*
X5807920Y-15810722D01*
X5807920Y-15810722D02*
X5817444Y-15829769D01*
X5817444Y-15829769D02*
X5817444Y-15877388D01*
X5817444Y-15877388D02*
X5807920Y-15896436D01*
X5807920Y-15896436D02*
X5798396Y-15905960D01*
X5798396Y-15905960D02*
X5779348Y-15915484D01*
X5779348Y-15915484D02*
X5731729Y-15915484D01*
X5731729Y-15915484D02*
X5712682Y-15905960D01*
X5712682Y-15905960D02*
X5703158Y-15896436D01*
X5893634Y-15715484D02*
X5893634Y-15753579D01*
X5969825Y-15715484D02*
X5969825Y-15753579D01*
X6265063Y-15991674D02*
X6255539Y-15982150D01*
X6255539Y-15982150D02*
X6236491Y-15953579D01*
X6236491Y-15953579D02*
X6226968Y-15934531D01*
X6226968Y-15934531D02*
X6217444Y-15905960D01*
X6217444Y-15905960D02*
X6207920Y-15858341D01*
X6207920Y-15858341D02*
X6207920Y-15820246D01*
X6207920Y-15820246D02*
X6217444Y-15772627D01*
X6217444Y-15772627D02*
X6226968Y-15744055D01*
X6226968Y-15744055D02*
X6236491Y-15725008D01*
X6236491Y-15725008D02*
X6255539Y-15696436D01*
X6255539Y-15696436D02*
X6265063Y-15686912D01*
X6426968Y-15715484D02*
X6388872Y-15715484D01*
X6388872Y-15715484D02*
X6369825Y-15725008D01*
X6369825Y-15725008D02*
X6360301Y-15734531D01*
X6360301Y-15734531D02*
X6341253Y-15763103D01*
X6341253Y-15763103D02*
X6331729Y-15801198D01*
X6331729Y-15801198D02*
X6331729Y-15877388D01*
X6331729Y-15877388D02*
X6341253Y-15896436D01*
X6341253Y-15896436D02*
X6350777Y-15905960D01*
X6350777Y-15905960D02*
X6369825Y-15915484D01*
X6369825Y-15915484D02*
X6407920Y-15915484D01*
X6407920Y-15915484D02*
X6426968Y-15905960D01*
X6426968Y-15905960D02*
X6436491Y-15896436D01*
X6436491Y-15896436D02*
X6446015Y-15877388D01*
X6446015Y-15877388D02*
X6446015Y-15829769D01*
X6446015Y-15829769D02*
X6436491Y-15810722D01*
X6436491Y-15810722D02*
X6426968Y-15801198D01*
X6426968Y-15801198D02*
X6407920Y-15791674D01*
X6407920Y-15791674D02*
X6369825Y-15791674D01*
X6369825Y-15791674D02*
X6350777Y-15801198D01*
X6350777Y-15801198D02*
X6341253Y-15810722D01*
X6341253Y-15810722D02*
X6331729Y-15829769D01*
X6522206Y-15734531D02*
X6531729Y-15725008D01*
X6531729Y-15725008D02*
X6550777Y-15715484D01*
X6550777Y-15715484D02*
X6598396Y-15715484D01*
X6598396Y-15715484D02*
X6617444Y-15725008D01*
X6617444Y-15725008D02*
X6626968Y-15734531D01*
X6626968Y-15734531D02*
X6636491Y-15753579D01*
X6636491Y-15753579D02*
X6636491Y-15772627D01*
X6636491Y-15772627D02*
X6626968Y-15801198D01*
X6626968Y-15801198D02*
X6512682Y-15915484D01*
X6512682Y-15915484D02*
X6636491Y-15915484D01*
X6874587Y-15915484D02*
X6874587Y-15715484D01*
X6960301Y-15915484D02*
X6960301Y-15810722D01*
X6960301Y-15810722D02*
X6950777Y-15791674D01*
X6950777Y-15791674D02*
X6931730Y-15782150D01*
X6931730Y-15782150D02*
X6903158Y-15782150D01*
X6903158Y-15782150D02*
X6884110Y-15791674D01*
X6884110Y-15791674D02*
X6874587Y-15801198D01*
X7084110Y-15915484D02*
X7065063Y-15905960D01*
X7065063Y-15905960D02*
X7055539Y-15896436D01*
X7055539Y-15896436D02*
X7046015Y-15877388D01*
X7046015Y-15877388D02*
X7046015Y-15820246D01*
X7046015Y-15820246D02*
X7055539Y-15801198D01*
X7055539Y-15801198D02*
X7065063Y-15791674D01*
X7065063Y-15791674D02*
X7084110Y-15782150D01*
X7084110Y-15782150D02*
X7112682Y-15782150D01*
X7112682Y-15782150D02*
X7131730Y-15791674D01*
X7131730Y-15791674D02*
X7141253Y-15801198D01*
X7141253Y-15801198D02*
X7150777Y-15820246D01*
X7150777Y-15820246D02*
X7150777Y-15877388D01*
X7150777Y-15877388D02*
X7141253Y-15896436D01*
X7141253Y-15896436D02*
X7131730Y-15905960D01*
X7131730Y-15905960D02*
X7112682Y-15915484D01*
X7112682Y-15915484D02*
X7084110Y-15915484D01*
X7265063Y-15915484D02*
X7246015Y-15905960D01*
X7246015Y-15905960D02*
X7236491Y-15886912D01*
X7236491Y-15886912D02*
X7236491Y-15715484D01*
X7417444Y-15905960D02*
X7398396Y-15915484D01*
X7398396Y-15915484D02*
X7360301Y-15915484D01*
X7360301Y-15915484D02*
X7341253Y-15905960D01*
X7341253Y-15905960D02*
X7331730Y-15886912D01*
X7331730Y-15886912D02*
X7331730Y-15810722D01*
X7331730Y-15810722D02*
X7341253Y-15791674D01*
X7341253Y-15791674D02*
X7360301Y-15782150D01*
X7360301Y-15782150D02*
X7398396Y-15782150D01*
X7398396Y-15782150D02*
X7417444Y-15791674D01*
X7417444Y-15791674D02*
X7426968Y-15810722D01*
X7426968Y-15810722D02*
X7426968Y-15829769D01*
X7426968Y-15829769D02*
X7331730Y-15848817D01*
X7503158Y-15905960D02*
X7522206Y-15915484D01*
X7522206Y-15915484D02*
X7560301Y-15915484D01*
X7560301Y-15915484D02*
X7579349Y-15905960D01*
X7579349Y-15905960D02*
X7588872Y-15886912D01*
X7588872Y-15886912D02*
X7588872Y-15877388D01*
X7588872Y-15877388D02*
X7579349Y-15858341D01*
X7579349Y-15858341D02*
X7560301Y-15848817D01*
X7560301Y-15848817D02*
X7531730Y-15848817D01*
X7531730Y-15848817D02*
X7512682Y-15839293D01*
X7512682Y-15839293D02*
X7503158Y-15820246D01*
X7503158Y-15820246D02*
X7503158Y-15810722D01*
X7503158Y-15810722D02*
X7512682Y-15791674D01*
X7512682Y-15791674D02*
X7531730Y-15782150D01*
X7531730Y-15782150D02*
X7560301Y-15782150D01*
X7560301Y-15782150D02*
X7579349Y-15791674D01*
X7655539Y-15991674D02*
X7665063Y-15982150D01*
X7665063Y-15982150D02*
X7684111Y-15953579D01*
X7684111Y-15953579D02*
X7693634Y-15934531D01*
X7693634Y-15934531D02*
X7703158Y-15905960D01*
X7703158Y-15905960D02*
X7712682Y-15858341D01*
X7712682Y-15858341D02*
X7712682Y-15820246D01*
X7712682Y-15820246D02*
X7703158Y-15772627D01*
X7703158Y-15772627D02*
X7693634Y-15744055D01*
X7693634Y-15744055D02*
X7684111Y-15725008D01*
X7684111Y-15725008D02*
X7665063Y-15696436D01*
X7665063Y-15696436D02*
X7655539Y-15686912D01*
X8017444Y-15991674D02*
X8007920Y-15982150D01*
X8007920Y-15982150D02*
X7988872Y-15953579D01*
X7988872Y-15953579D02*
X7979349Y-15934531D01*
X7979349Y-15934531D02*
X7969825Y-15905960D01*
X7969825Y-15905960D02*
X7960301Y-15858341D01*
X7960301Y-15858341D02*
X7960301Y-15820246D01*
X7960301Y-15820246D02*
X7969825Y-15772627D01*
X7969825Y-15772627D02*
X7979349Y-15744055D01*
X7979349Y-15744055D02*
X7988872Y-15725008D01*
X7988872Y-15725008D02*
X8007920Y-15696436D01*
X8007920Y-15696436D02*
X8017444Y-15686912D01*
X8093634Y-15782150D02*
X8093634Y-15915484D01*
X8093634Y-15801198D02*
X8103158Y-15791674D01*
X8103158Y-15791674D02*
X8122206Y-15782150D01*
X8122206Y-15782150D02*
X8150777Y-15782150D01*
X8150777Y-15782150D02*
X8169825Y-15791674D01*
X8169825Y-15791674D02*
X8179349Y-15810722D01*
X8179349Y-15810722D02*
X8179349Y-15915484D01*
X8303158Y-15915484D02*
X8284111Y-15905960D01*
X8284111Y-15905960D02*
X8274587Y-15896436D01*
X8274587Y-15896436D02*
X8265063Y-15877388D01*
X8265063Y-15877388D02*
X8265063Y-15820246D01*
X8265063Y-15820246D02*
X8274587Y-15801198D01*
X8274587Y-15801198D02*
X8284111Y-15791674D01*
X8284111Y-15791674D02*
X8303158Y-15782150D01*
X8303158Y-15782150D02*
X8331730Y-15782150D01*
X8331730Y-15782150D02*
X8350777Y-15791674D01*
X8350777Y-15791674D02*
X8360301Y-15801198D01*
X8360301Y-15801198D02*
X8369825Y-15820246D01*
X8369825Y-15820246D02*
X8369825Y-15877388D01*
X8369825Y-15877388D02*
X8360301Y-15896436D01*
X8360301Y-15896436D02*
X8350777Y-15905960D01*
X8350777Y-15905960D02*
X8331730Y-15915484D01*
X8331730Y-15915484D02*
X8303158Y-15915484D01*
X8426968Y-15782150D02*
X8503158Y-15782150D01*
X8455539Y-15715484D02*
X8455539Y-15886912D01*
X8455539Y-15886912D02*
X8465063Y-15905960D01*
X8465063Y-15905960D02*
X8484111Y-15915484D01*
X8484111Y-15915484D02*
X8503158Y-15915484D01*
X8722206Y-15782150D02*
X8722206Y-15982150D01*
X8722206Y-15791674D02*
X8741254Y-15782150D01*
X8741254Y-15782150D02*
X8779349Y-15782150D01*
X8779349Y-15782150D02*
X8798396Y-15791674D01*
X8798396Y-15791674D02*
X8807920Y-15801198D01*
X8807920Y-15801198D02*
X8817444Y-15820246D01*
X8817444Y-15820246D02*
X8817444Y-15877388D01*
X8817444Y-15877388D02*
X8807920Y-15896436D01*
X8807920Y-15896436D02*
X8798396Y-15905960D01*
X8798396Y-15905960D02*
X8779349Y-15915484D01*
X8779349Y-15915484D02*
X8741254Y-15915484D01*
X8741254Y-15915484D02*
X8722206Y-15905960D01*
X8931730Y-15915484D02*
X8912682Y-15905960D01*
X8912682Y-15905960D02*
X8903158Y-15886912D01*
X8903158Y-15886912D02*
X8903158Y-15715484D01*
X9093635Y-15915484D02*
X9093635Y-15810722D01*
X9093635Y-15810722D02*
X9084111Y-15791674D01*
X9084111Y-15791674D02*
X9065063Y-15782150D01*
X9065063Y-15782150D02*
X9026968Y-15782150D01*
X9026968Y-15782150D02*
X9007920Y-15791674D01*
X9093635Y-15905960D02*
X9074587Y-15915484D01*
X9074587Y-15915484D02*
X9026968Y-15915484D01*
X9026968Y-15915484D02*
X9007920Y-15905960D01*
X9007920Y-15905960D02*
X8998396Y-15886912D01*
X8998396Y-15886912D02*
X8998396Y-15867865D01*
X8998396Y-15867865D02*
X9007920Y-15848817D01*
X9007920Y-15848817D02*
X9026968Y-15839293D01*
X9026968Y-15839293D02*
X9074587Y-15839293D01*
X9074587Y-15839293D02*
X9093635Y-15829769D01*
X9160301Y-15782150D02*
X9236492Y-15782150D01*
X9188873Y-15715484D02*
X9188873Y-15886912D01*
X9188873Y-15886912D02*
X9198396Y-15905960D01*
X9198396Y-15905960D02*
X9217444Y-15915484D01*
X9217444Y-15915484D02*
X9236492Y-15915484D01*
X9379349Y-15905960D02*
X9360301Y-15915484D01*
X9360301Y-15915484D02*
X9322206Y-15915484D01*
X9322206Y-15915484D02*
X9303158Y-15905960D01*
X9303158Y-15905960D02*
X9293635Y-15886912D01*
X9293635Y-15886912D02*
X9293635Y-15810722D01*
X9293635Y-15810722D02*
X9303158Y-15791674D01*
X9303158Y-15791674D02*
X9322206Y-15782150D01*
X9322206Y-15782150D02*
X9360301Y-15782150D01*
X9360301Y-15782150D02*
X9379349Y-15791674D01*
X9379349Y-15791674D02*
X9388873Y-15810722D01*
X9388873Y-15810722D02*
X9388873Y-15829769D01*
X9388873Y-15829769D02*
X9293635Y-15848817D01*
X9560301Y-15915484D02*
X9560301Y-15715484D01*
X9560301Y-15905960D02*
X9541254Y-15915484D01*
X9541254Y-15915484D02*
X9503158Y-15915484D01*
X9503158Y-15915484D02*
X9484111Y-15905960D01*
X9484111Y-15905960D02*
X9474587Y-15896436D01*
X9474587Y-15896436D02*
X9465063Y-15877388D01*
X9465063Y-15877388D02*
X9465063Y-15820246D01*
X9465063Y-15820246D02*
X9474587Y-15801198D01*
X9474587Y-15801198D02*
X9484111Y-15791674D01*
X9484111Y-15791674D02*
X9503158Y-15782150D01*
X9503158Y-15782150D02*
X9541254Y-15782150D01*
X9541254Y-15782150D02*
X9560301Y-15791674D01*
X9636492Y-15991674D02*
X9646016Y-15982150D01*
X9646016Y-15982150D02*
X9665063Y-15953579D01*
X9665063Y-15953579D02*
X9674587Y-15934531D01*
X9674587Y-15934531D02*
X9684111Y-15905960D01*
X9684111Y-15905960D02*
X9693635Y-15858341D01*
X9693635Y-15858341D02*
X9693635Y-15820246D01*
X9693635Y-15820246D02*
X9684111Y-15772627D01*
X9684111Y-15772627D02*
X9674587Y-15744055D01*
X9674587Y-15744055D02*
X9665063Y-15725008D01*
X9665063Y-15725008D02*
X9646016Y-15696436D01*
X9646016Y-15696436D02*
X9636492Y-15686912D01*
M02*
